<svg width="48" height="48" viewBox="0 0 48 48" fill="none" xmlns="http://www.w3.org/2000/svg">
<path d="M18.5992 30.9462H17.3968V19.2999C17.1205 19.7061 16.7495 20.1224 16.2837 20.5488C15.8179 20.9685 15.39 21.2867 15 21.5033V19.7365C15.6608 19.2627 16.2431 18.6839 16.7468 18.0003C17.256 17.3166 17.6134 16.6498 17.8193 16H18.5992V30.9462Z" fill="white"/>
<path d="M20.0418 23.6051C20.0418 21.1073 20.3099 19.2153 20.8461 17.9292C21.3878 16.6431 22.184 16 23.2348 16C24.1664 16 24.9004 16.5212 25.4366 17.5637C26.0866 18.8227 26.4115 20.8365 26.4115 23.6051C26.4115 26.0893 26.1434 27.9779 25.6072 29.2708C25.071 30.5569 24.2748 31.2 23.2185 31.2C22.2869 31.2 21.5232 30.6314 20.9274 29.4942C20.337 28.357 20.0418 26.3939 20.0418 23.6051ZM21.2686 23.6051C21.2686 26.0216 21.4528 27.6428 21.8211 28.4687C22.1948 29.2877 22.6715 29.6973 23.251 29.6973C23.7981 29.6973 24.2558 29.281 24.6241 28.4484C24.9924 27.6158 25.1766 26.0013 25.1766 23.6051C25.1766 21.1817 24.9897 19.5605 24.616 18.7415C24.2477 17.9224 23.7683 17.5129 23.1779 17.5129C22.6363 17.5129 22.1813 17.9292 21.813 18.7618C21.4501 19.5944 21.2686 21.2088 21.2686 23.6051Z" fill="white"/>
<path d="M27.6302 23.6051C27.6302 21.1073 27.8984 19.2153 28.4346 17.9292C28.9762 16.6431 29.7725 16 30.8232 16C31.7549 16 32.4888 16.5212 33.025 17.5637C33.675 18.8227 34 20.8365 34 23.6051C34 26.0893 33.7319 27.9779 33.1957 29.2708C32.6594 30.5569 31.8632 31.2 30.807 31.2C29.8754 31.2 29.1116 30.6314 28.5158 29.4942C27.9254 28.357 27.6302 26.3939 27.6302 23.6051ZM28.8571 23.6051C28.8571 26.0216 29.0412 27.6428 29.4096 28.4687C29.7833 29.2877 30.2599 29.6973 30.8395 29.6973C31.3866 29.6973 31.8442 29.281 32.2126 28.4484C32.5809 27.6158 32.765 26.0013 32.765 23.6051C32.765 21.1817 32.5782 19.5605 32.2044 18.7415C31.8361 17.9224 31.3568 17.5129 30.7664 17.5129C30.2247 17.5129 29.7697 17.9292 29.4014 18.7618C29.0385 19.5944 28.8571 21.2088 28.8571 23.6051Z" fill="white"/>
<rect x="0.5" y="0.5" width="47" height="47" rx="23.5" stroke="white"/>
</svg>
