<svg width="48" height="48" viewBox="0 0 48 48" fill="none" xmlns="http://www.w3.org/2000/svg">
<path d="M21.0359 29.1896V30.9462H15.001C14.9858 30.2354 15.1452 29.44 15.4792 28.5601C15.8183 27.6801 16.4357 26.641 17.3314 25.4429C18.379 24.0485 19.0647 22.9722 19.3886 22.214C19.7125 21.4491 19.8744 20.7384 19.8744 20.0818C19.8744 19.3236 19.7074 18.7076 19.3734 18.2338C19.0445 17.7532 18.6371 17.5129 18.1513 17.5129C17.63 17.5129 17.2024 17.7701 16.8684 18.2846C16.5344 18.799 16.3674 19.5369 16.3674 20.4981L15.2135 20.3051C15.2945 18.8769 15.5956 17.804 16.1169 17.0864C16.6432 16.3621 17.334 16 18.1892 16C19.1204 16 19.8238 16.4197 20.2995 17.2591C20.7803 18.0984 21.0207 19.0529 21.0207 20.1224C21.0207 21.0701 20.8334 21.9805 20.4589 22.8537C20.0844 23.7202 19.3734 24.8777 18.3259 26.3263C17.6578 27.2401 17.2252 27.8628 17.0278 28.1945C16.8355 28.5262 16.6786 28.8579 16.5571 29.1896H21.0359Z" fill="white"/>
<path d="M21.6503 23.6051C21.6503 21.1073 21.9008 19.2153 22.4018 17.9292C22.9079 16.6431 23.6518 16 24.6336 16C25.504 16 26.1897 16.5212 26.6907 17.5637C27.298 18.8227 27.6017 20.8365 27.6017 23.6051C27.6017 26.0893 27.3512 27.9779 26.8501 29.2708C26.3491 30.5569 25.6052 31.2 24.6184 31.2C23.7479 31.2 23.0344 30.6314 22.4777 29.4942C21.9261 28.357 21.6503 26.3939 21.6503 23.6051ZM22.7965 23.6051C22.7965 26.0216 22.9686 27.6428 23.3127 28.4687C23.6619 29.2877 24.1073 29.6973 24.6487 29.6973C25.1599 29.6973 25.5875 29.281 25.9316 28.4484C26.2758 27.6158 26.4478 26.0013 26.4478 23.6051C26.4478 21.1817 26.2732 19.5605 25.924 18.7415C25.5799 17.9224 25.132 17.5129 24.5804 17.5129C24.0744 17.5129 23.6493 17.9292 23.3051 18.7618C22.9661 19.5944 22.7965 21.2088 22.7965 23.6051Z" fill="white"/>
<path d="M28.0486 23.6051C28.0486 21.1073 28.2991 19.2153 28.8002 17.9292C29.3062 16.6431 30.0501 16 31.0319 16C31.9023 16 32.5881 16.5212 33.0891 17.5637C33.6964 18.8227 34 20.8365 34 23.6051C34 26.0893 33.7495 27.9779 33.2485 29.2708C32.7475 30.5569 32.0036 31.2 31.0167 31.2C30.1463 31.2 29.4327 30.6314 28.8761 29.4942C28.3244 28.357 28.0486 26.3939 28.0486 23.6051ZM29.1949 23.6051C29.1949 26.0216 29.3669 27.6428 29.7111 28.4687C30.0603 29.2877 30.5056 29.6973 31.0471 29.6973C31.5582 29.6973 31.9858 29.281 32.33 28.4484C32.6741 27.6158 32.8462 26.0013 32.8462 23.6051C32.8462 21.1817 32.6716 19.5605 32.3224 18.7415C31.9783 17.9224 31.5304 17.5129 30.9788 17.5129C30.4727 17.5129 30.0476 17.9292 29.7035 18.7618C29.3644 19.5944 29.1949 21.2088 29.1949 23.6051Z" fill="white"/>
<rect x="0.5" y="0.5" width="47" height="47" rx="23.5" stroke="white"/>
</svg>
