<svg width="48" height="48" viewBox="0 0 48 48" fill="none" xmlns="http://www.w3.org/2000/svg">
<path d="M20.3469 33.5002H27.6538M24.7402 17.4981C25.6332 17.6495 26.4573 18.0744 27.0986 18.7141C27.7399 19.3537 28.1669 20.1767 28.3205 21.0694M19.4975 27.5634C18.6276 26.887 17.923 26.0215 17.4372 25.0325C16.9514 24.0434 16.697 22.9568 16.6934 21.8549C16.6752 17.8909 19.8628 14.5936 23.8268 14.5023C25.3609 14.4659 26.8676 14.9135 28.1331 15.7815C29.3986 16.6495 30.3586 17.894 30.8771 19.3383C31.3956 20.7826 31.4463 22.3535 31.0218 23.8282C30.5973 25.3029 29.7193 26.6066 28.5124 27.5543C28.2457 27.7603 28.0298 28.0247 27.8809 28.327C27.7321 28.6294 27.6544 28.9618 27.6538 29.2988V29.8468C27.6538 30.0406 27.5768 30.2264 27.4398 30.3635C27.3027 30.5005 27.1169 30.5775 26.9231 30.5775H21.0776C20.8838 30.5775 20.6979 30.5005 20.5609 30.3635C20.4239 30.2264 20.3469 30.0406 20.3469 29.8468V29.2988C20.3446 28.9643 20.2671 28.6347 20.12 28.3342C19.973 28.0338 19.7602 27.7704 19.4975 27.5634Z" stroke="white" stroke-linecap="round" stroke-linejoin="round"/>
<rect x="0.5" y="0.5" width="47" height="47" rx="23.5" stroke="white"/>
</svg>
