<svg width="48" height="48" viewBox="0 0 48 48" fill="none" xmlns="http://www.w3.org/2000/svg">
<path d="M32.0238 23.3369H29.37C29.0181 23.3369 28.6806 23.4767 28.4317 23.7256C28.1829 23.9744 28.0431 24.3119 28.0431 24.6638V27.9811C28.0431 28.333 28.1829 28.6705 28.4317 28.9193C28.6806 29.1682 29.0181 29.308 29.37 29.308H30.6969C31.0488 29.308 31.3863 29.1682 31.6351 28.9193C31.884 28.6705 32.0238 28.333 32.0238 27.9811M32.0238 23.3369V27.9811M32.0238 23.3369C32.0238 22.2858 31.8157 21.2451 31.4115 20.2748C31.0072 19.3046 30.4149 18.4239 29.6685 17.6838C28.9222 16.9436 28.0367 16.3586 27.0631 15.9624C26.0895 15.5662 25.0471 15.3668 23.996 15.3755C22.9456 15.3679 21.9041 15.5681 20.9315 15.9648C19.9589 16.3615 19.0743 16.9467 18.3289 17.6867C17.5834 18.4268 16.9918 19.307 16.5881 20.2768C16.1844 21.2465 15.9765 22.2865 15.9766 23.3369M32.0238 27.9811V29.9714C32.0238 30.6753 31.7442 31.3503 31.2465 31.848C30.7488 32.3456 30.0738 32.6252 29.37 32.6252H24.6014M15.9766 23.3369V27.9811C15.9766 28.333 16.1164 28.6705 16.3652 28.9193C16.614 29.1682 16.9515 29.308 17.3035 29.308H18.6304C18.9823 29.308 19.3198 29.1682 19.5686 28.9193C19.8175 28.6705 19.9573 28.333 19.9573 27.9811V24.6638C19.9573 24.3119 19.8175 23.9744 19.5686 23.7256C19.3198 23.4767 18.9823 23.3369 18.6304 23.3369H15.9766Z" stroke="white" stroke-linecap="round" stroke-linejoin="round"/>
<rect x="0.5" y="0.5" width="47" height="47" rx="23.5" stroke="white"/>
</svg>
