<svg width="48" height="48" viewBox="0 0 48 48" fill="none" xmlns="http://www.w3.org/2000/svg">
<path d="M18 22.6666H22M20 20.6666V24.6666M28.6666 21.3333H30M26 23.9999H27.3333M33.3333 21.3333V27.3704C33.3333 29.1908 31.8575 30.6666 30.0371 30.6666C28.7886 30.6666 27.6473 29.9612 27.0889 28.8445L26.6666 27.9999H21.3333L20.911 28.8445C20.3527 29.9612 19.2113 30.6666 17.9628 30.6666C16.1424 30.6666 14.6666 29.1908 14.6666 27.3704V21.3333C14.6666 19.1241 16.4575 17.3333 18.6666 17.3333H29.3333C31.5424 17.3333 33.3333 19.1241 33.3333 21.3333Z" stroke="white" stroke-linejoin="round"/>
<rect x="0.5" y="0.5" width="47" height="47" rx="23.5" stroke="white"/>
</svg>
