<svg width="48" height="48" viewBox="0 0 48 48" fill="none" xmlns="http://www.w3.org/2000/svg">
<path d="M20.9861 31.1071V24.3614H15.5454V31.1071H14.14V16.8929H15.5454V23.1167H20.9861V16.8929H22.3915V31.1071H20.9861Z" fill="white"/>
<path d="M33.86 24.0201C33.86 25.1845 33.7396 26.2084 33.4986 27.0918C33.2577 27.9752 32.9097 28.718 32.4547 29.3203C31.9996 29.9092 31.4508 30.3576 30.8084 30.6654C30.1793 30.9599 29.4766 31.1071 28.7004 31.1071H25.6487V16.8929H28.7204C29.4967 16.8929 30.1994 17.0469 30.8285 17.3547C31.4709 17.6492 32.013 18.0975 32.4547 18.6998C32.9097 19.3021 33.2577 20.0516 33.4986 20.9484C33.7396 21.8318 33.86 22.8557 33.86 24.0201ZM32.4747 24.0201C32.4747 23.0163 32.3744 22.1463 32.1736 21.4102C31.9862 20.6606 31.7185 20.045 31.3705 19.5631C31.0359 19.0813 30.6344 18.7199 30.1659 18.479C29.7109 18.2381 29.2156 18.1176 28.6803 18.1176H27.034V29.8825H28.6803C29.2156 29.8825 29.7109 29.762 30.1659 29.5211C30.6344 29.2802 31.0359 28.9188 31.3705 28.4369C31.7185 27.9551 31.9862 27.3461 32.1736 26.61C32.3744 25.8738 32.4747 25.0105 32.4747 24.0201Z" fill="white"/>
<rect x="0.5" y="0.5" width="47" height="47" rx="23.5" stroke="white"/>
</svg>
