<svg width="48" height="48" viewBox="0 0 48 48" fill="none" xmlns="http://www.w3.org/2000/svg">
<path d="M18.6666 27.9922L18.9238 27.5634L18.805 27.4922H18.6666V27.9922ZM18.6666 19.9974V20.4974H18.805L18.9238 20.4262L18.6666 19.9974ZM25.3333 16H25.8333C25.8333 15.8199 25.7364 15.6537 25.5797 15.5649C25.423 15.4762 25.2306 15.4786 25.0762 15.5712L25.3333 16ZM25.3333 31.9896L25.0762 32.4184C25.2306 32.511 25.423 32.5134 25.5797 32.4246C25.7364 32.3359 25.8333 32.1697 25.8333 31.9896H25.3333ZM18.6666 27.4922H16V28.4922H18.6666V27.4922ZM16 27.4922C15.5395 27.4922 15.1666 27.1198 15.1666 26.6597H14.1666C14.1666 27.6733 14.9885 28.4922 16 28.4922V27.4922ZM15.1666 26.6597V21.3299H14.1666V26.6597H15.1666ZM15.1666 21.3299C15.1666 20.8698 15.5395 20.4974 16 20.4974V19.4974C14.9885 19.4974 14.1666 20.3162 14.1666 21.3299H15.1666ZM16 20.4974H18.6666V19.4974H16V20.4974ZM18.9238 20.4262L25.5904 16.4288L25.0762 15.5712L18.4095 19.5686L18.9238 20.4262ZM24.8333 16V31.9896H25.8333V16H24.8333ZM25.5904 31.5607L18.9238 27.5634L18.4095 28.421L25.0762 32.4184L25.5904 31.5607ZM27.5 22V26H28.5V22H27.5ZM30.1666 19.3333V28.6667H31.1666V19.3333H30.1666ZM32.8333 16.6667V31.3333H33.8333V16.6667H32.8333Z" fill="white"/>
<rect x="0.5" y="0.5" width="47" height="47" rx="23.5" stroke="white"/>
</svg>
