<svg width="48" height="48" viewBox="0 0 48 48" fill="none" xmlns="http://www.w3.org/2000/svg">
<path fill-rule="evenodd" clip-rule="evenodd" d="M21.9253 14.6666L21.8106 15.2489L21.372 17.3795C20.6706 17.6473 20.0346 18.0271 19.46 18.4775L17.316 17.7606L16.74 17.5821L16.4413 18.0964L14.9653 20.5641L14.6666 21.0785L15.104 21.4609L16.7626 22.8719C16.7026 23.241 16.6253 23.6061 16.6253 23.9939C16.6253 24.3816 16.7026 24.7468 16.7626 25.1158L15.104 26.5269L14.6666 26.9093L14.9653 27.4236L16.4413 29.8914L16.74 30.407L17.316 30.2272L19.46 29.5103C20.0346 29.9607 20.6706 30.3404 21.372 30.6082L21.8106 32.7388L21.9253 33.3212H26.0733L26.1893 32.7388L26.6266 30.6082C27.328 30.3404 27.964 29.9607 28.5386 29.5103L30.6826 30.2272L31.2586 30.407L31.5586 29.8914L33.0333 27.4236L33.3333 26.9093L32.8946 26.5269L31.236 25.1158C31.2973 24.7468 31.3733 24.3816 31.3733 23.9939C31.3733 23.6061 31.2973 23.241 31.236 22.8719L32.8946 21.4609L33.3333 21.0785L33.0333 20.5641L31.5586 18.0964L31.2586 17.5821L30.6826 17.7606L28.5386 18.4775C27.964 18.0271 27.328 17.6473 26.6266 17.3795L26.1893 15.2489L26.0733 14.6666H21.9253Z" stroke="white" stroke-linecap="square" stroke-linejoin="round"/>
<path fill-rule="evenodd" clip-rule="evenodd" d="M26.6661 23.9939C26.6661 25.4649 25.4715 26.6588 23.9995 26.6588C22.5275 26.6588 21.3328 25.4649 21.3328 23.9939C21.3328 22.5228 22.5275 21.329 23.9995 21.329C25.4715 21.329 26.6661 22.5228 26.6661 23.9939Z" stroke="white" stroke-linecap="square" stroke-linejoin="round"/>
<rect x="0.5" y="0.5" width="47" height="47" rx="23.5" stroke="white"/>
</svg>
