<svg width="160" height="140" viewBox="0 0 160 140" fill="none" xmlns="http://www.w3.org/2000/svg">
<path d="M46.6666 38.9231L79.187 9.91675V36.824C75.6785 37.1776 72.9539 39.7921 72.9539 42.9649C72.9539 46.1377 75.6785 48.7523 79.187 49.1059V60.0834H71.0569V28.224L54.7967 42.6584V53.1885H66.3143V60.0834H46.6666V38.9231Z" fill="#F4CF09"/>
<path d="M113.333 38.9231L80.813 9.91675V36.824C84.3215 37.1776 87.0461 39.7921 87.0461 42.9649C87.0461 46.1377 84.3215 48.7523 80.813 49.1059V60.0834H88.9431V28.224L105.203 42.6584V53.1885H93.6856V60.0834H113.333V38.9231Z" fill="white"/>
<ellipse cx="79.9999" cy="42.9651" rx="5.42006" ry="4.75513" fill="white"/>
<path d="M52.3577 16.574H64.8238V20.6158L52.3577 31.5526V16.574Z" fill="white"/>
<path d="M18.4466 93.0083V104.468H11.6666V80.4134H18.4466V90.9506H29.5429V80.4134H36.2618V104.468H29.5429V93.0083H18.4466Z" fill="#F4CF09"/>
<path d="M55.6169 105C53.3909 105 51.3141 104.687 49.3867 104.06C47.4593 103.433 45.7897 102.558 44.3781 101.434C42.9664 100.299 41.8534 98.9569 41.039 97.4077C40.2382 95.8466 39.8377 94.1377 39.8377 92.281C39.8377 90.4598 40.2382 88.7923 41.039 87.2785C41.8534 85.753 42.9664 84.4462 44.3781 83.3582C45.7897 82.2702 47.4593 81.4246 49.3867 80.8214C51.3141 80.2183 53.3909 79.9167 55.6169 79.9167C57.843 79.9167 59.913 80.2242 61.8268 80.8392C63.7543 81.4423 65.4238 82.2879 66.8354 83.3759C68.2607 84.4639 69.3805 85.7648 70.1949 87.2785C71.0093 88.7805 71.4165 90.4302 71.4165 92.2278C71.4165 93.505 71.2333 94.7113 70.8668 95.8466C70.5003 96.9701 69.9777 98.0049 69.299 98.951C68.6204 99.8971 67.806 100.743 66.8558 101.488C65.9057 102.233 64.8401 102.865 63.6592 103.386C62.4919 103.906 61.2296 104.302 59.8722 104.574C58.5149 104.858 57.0965 105 55.6169 105ZM55.6169 102.978C56.9607 102.978 58.1484 102.712 59.18 102.18C60.2116 101.636 61.0735 100.89 61.7657 99.9444C62.458 98.9983 62.9806 97.8748 63.3335 96.5739C63.7 95.2612 63.8832 93.8303 63.8832 92.281C63.8832 90.7554 63.7 89.36 63.3335 88.0946C62.9806 86.8292 62.458 85.7411 61.7657 84.8305C61.0735 83.9199 60.2116 83.2103 59.18 82.7018C58.1484 82.1933 56.9607 81.939 55.6169 81.939C54.2596 81.939 53.0651 82.1933 52.0335 82.7018C51.002 83.2103 50.14 83.9199 49.4478 84.8305C48.7555 85.7411 48.233 86.8292 47.88 88.0946C47.5271 89.36 47.3507 90.7554 47.3507 92.281C47.3507 93.8303 47.5271 95.2612 47.88 96.5739C48.233 97.8748 48.7555 98.9983 49.4478 99.9444C50.14 100.89 51.002 101.636 52.0335 102.18C53.0651 102.712 54.2596 102.978 55.6169 102.978Z" fill="#F4CF09"/>
<path d="M74.9296 80.4134H81.7096V95.8821C81.7096 96.8045 81.8725 97.6738 82.1982 98.4898C82.5376 99.3058 83.0126 100.021 83.6234 100.636C84.2478 101.239 84.9944 101.718 85.8631 102.073C86.7453 102.428 87.7362 102.605 88.8357 102.605C89.908 102.605 90.8785 102.428 91.7472 102.073C92.6159 101.718 93.3556 101.239 93.9664 100.636C94.5772 100.021 95.0455 99.3058 95.3713 98.4898C95.7106 97.6738 95.8803 96.8045 95.8803 95.8821V80.4134H100.156V95.8821C100.156 97.1238 99.9116 98.3005 99.423 99.4122C98.9479 100.512 98.1946 101.476 97.163 102.304C96.1314 103.132 94.808 103.788 93.1927 104.273C91.5775 104.758 89.6365 105 87.3697 105C85.3473 105 83.5556 104.758 81.9946 104.273C80.4472 103.788 79.151 103.132 78.1058 102.304C77.0606 101.464 76.2666 100.488 75.7236 99.3767C75.1943 98.2651 74.9296 97.0825 74.9296 95.8289V80.4134Z" fill="#F4CF09"/>
<path d="M114.317 104.823C112.661 104.823 111.208 104.657 109.96 104.326C108.725 103.983 107.673 103.516 106.804 102.925C105.935 102.333 105.243 101.63 104.727 100.814C104.211 99.9858 103.858 99.0811 103.668 98.0995H108.372C108.535 98.7026 108.772 99.2644 109.084 99.7847C109.396 100.305 109.79 100.76 110.265 101.151C110.754 101.529 111.324 101.831 111.975 102.055C112.641 102.268 113.407 102.375 114.276 102.375C114.846 102.375 115.409 102.321 115.966 102.215C116.536 102.109 117.045 101.937 117.493 101.701C117.941 101.452 118.301 101.139 118.572 100.76C118.844 100.37 118.979 99.8912 118.979 99.3235C118.979 98.6139 118.769 97.9812 118.348 97.4254C117.927 96.8696 117.371 96.367 116.679 95.9176C115.986 95.4564 115.199 95.0306 114.317 94.6403C113.435 94.2501 112.532 93.8598 111.609 93.4696C110.686 93.0675 109.783 92.6476 108.901 92.2101C108.019 91.7725 107.231 91.2876 106.539 90.7554C105.847 90.2114 105.29 89.6024 104.87 88.9283C104.449 88.2424 104.239 87.4619 104.239 86.5867C104.239 85.6288 104.476 84.7477 104.951 83.9436C105.44 83.1276 106.139 82.4239 107.048 81.8326C107.958 81.2295 109.071 80.7623 110.387 80.4312C111.704 80.0882 113.204 79.9167 114.887 79.9167C116.271 79.9167 117.527 80.0823 118.654 80.4134C119.78 80.7446 120.771 81.2058 121.626 81.7971C122.495 82.3766 123.221 83.0625 123.805 83.8549C124.388 84.6354 124.836 85.4751 125.148 86.3738H120.893C120.649 85.8062 120.364 85.2622 120.038 84.7418C119.712 84.2215 119.312 83.7662 118.837 83.3759C118.362 82.9856 117.785 82.6782 117.106 82.4535C116.428 82.2169 115.62 82.0987 114.683 82.0987C113.801 82.0987 113.054 82.1992 112.444 82.4002C111.846 82.6013 111.365 82.8615 110.998 83.1808C110.632 83.4883 110.367 83.8371 110.204 84.2274C110.041 84.6058 109.96 84.9784 109.96 85.345C109.96 85.9836 110.177 86.5631 110.611 87.0834C111.046 87.6038 111.616 88.0886 112.322 88.538C113.041 88.9874 113.855 89.4191 114.765 89.833C115.674 90.2351 116.597 90.6431 117.534 91.057C118.484 91.4709 119.414 91.9085 120.323 92.3697C121.233 92.8191 122.04 93.3158 122.746 93.8598C123.465 94.4038 124.042 95.007 124.477 95.6692C124.911 96.3315 125.128 97.0765 125.128 97.9044C125.128 98.8859 124.897 99.7966 124.436 100.636C123.974 101.476 123.289 102.209 122.379 102.836C121.47 103.451 120.337 103.936 118.979 104.291C117.636 104.645 116.081 104.823 114.317 104.823Z" fill="#F4CF09"/>
<path d="M149.333 80.4134V82.4712H135.488V90.4007H146.992V92.4584H135.488V102.002H149.333V104.468H128.708V80.4134H149.333Z" fill="#F4CF09"/>
<path d="M19.8772 129.059C20.4302 129.059 20.9776 129.006 21.5193 128.9C22.061 128.787 22.5463 128.624 22.9752 128.412C23.4041 128.193 23.7483 127.929 24.0079 127.62C24.2675 127.303 24.3972 126.937 24.3972 126.522C24.3972 126.026 24.2167 125.587 23.8555 125.205C23.5057 124.814 23.0429 124.461 22.4673 124.144C21.8918 123.818 21.2315 123.514 20.4866 123.229C19.7531 122.944 19.0025 122.66 18.2351 122.375C17.4676 122.091 16.7115 121.794 15.9666 121.485C15.233 121.168 14.5784 120.818 14.0028 120.436C13.4272 120.046 12.9589 119.615 12.5977 119.143C12.2479 118.663 12.0729 118.114 12.0729 117.497C12.0729 116.879 12.2309 116.305 12.5469 115.777C12.8742 115.248 13.3482 114.793 13.969 114.411C14.5897 114.021 15.3515 113.716 16.2544 113.496C17.1686 113.277 18.2125 113.167 19.3863 113.167C20.4471 113.167 21.3952 113.248 22.2303 113.411C23.0655 113.573 23.7991 113.813 24.4311 114.13C25.0631 114.447 25.5992 114.838 26.0394 115.301C26.4795 115.765 26.835 116.301 27.1059 116.911L25.176 117.545C24.9503 117.049 24.6625 116.598 24.3126 116.192C23.9627 115.777 23.5452 115.423 23.0599 115.13C22.5746 114.838 22.0103 114.614 21.367 114.46C20.7349 114.297 20.0183 114.216 19.217 114.216C18.506 114.216 17.8852 114.289 17.3548 114.435C16.8243 114.573 16.3785 114.76 16.0174 114.996C15.6675 115.224 15.4023 115.484 15.2217 115.777C15.0524 116.061 14.9678 116.354 14.9678 116.655C14.9678 117.078 15.1484 117.468 15.5095 117.826C15.8707 118.175 16.3503 118.509 16.9485 118.826C17.5466 119.135 18.2238 119.436 18.98 119.729C19.7474 120.021 20.5261 120.318 21.3162 120.619C22.1062 120.92 22.8793 121.233 23.6354 121.558C24.4029 121.883 25.0857 122.241 25.6839 122.631C26.282 123.013 26.7617 123.436 27.1228 123.9C27.484 124.355 27.6646 124.867 27.6646 125.437C27.6646 126.079 27.4953 126.685 27.1567 127.254C26.8181 127.815 26.3102 128.307 25.6331 128.73C24.9559 129.144 24.1151 129.474 23.1106 129.718C22.1062 129.961 20.9381 130.083 19.6063 130.083C18.5229 130.083 17.5579 129.998 16.7115 129.827C15.865 129.657 15.1145 129.409 14.4599 129.083C13.8166 128.758 13.2636 128.364 12.8009 127.9C12.3381 127.429 11.9601 126.892 11.6666 126.29L13.6812 125.693C13.9182 126.221 14.2342 126.693 14.6292 127.107C15.0355 127.522 15.5039 127.876 16.0343 128.169C16.5648 128.453 17.1516 128.673 17.7949 128.827C18.4495 128.982 19.1436 129.059 19.8772 129.059Z" fill="white"/>
<path d="M33.8284 113.533H37.6883L46.4236 125.937H46.6098L55.1759 113.533H58.968V129.705H55.1759V116.448H55.0574L45.848 129.705H45.0693L35.7583 116.557H35.5044V129.705H33.8284V113.533Z" fill="white"/>
<path d="M74.7747 113.167L85.3384 129.705H81.4955L78.0759 124.314H68.4433L64.9051 129.705H63.009L73.8267 113.167H74.7747ZM69.1035 123.266H77.3818L73.3019 116.862L69.1035 123.266Z" fill="white"/>
<path d="M89.37 113.533H97.1574C98.5004 113.533 99.6798 113.638 100.696 113.85C101.711 114.053 102.558 114.342 103.235 114.716C103.912 115.09 104.42 115.537 104.759 116.057C105.108 116.57 105.283 117.131 105.283 117.74C105.283 118.245 105.148 118.716 104.877 119.155C104.617 119.594 104.245 119.993 103.76 120.351C103.286 120.7 102.71 121.005 102.033 121.265C101.356 121.517 100.611 121.717 99.7983 121.863L107.975 129.705H103.59L95.7861 122.107H93.1452V129.705H89.37V113.533ZM93.1452 121.29H95.329C96.1755 121.29 96.9542 121.208 97.6653 121.046C98.3876 120.883 99.0083 120.655 99.5275 120.363C100.058 120.062 100.47 119.7 100.763 119.277C101.057 118.854 101.203 118.379 101.203 117.85C101.203 117.362 101.085 116.915 100.848 116.509C100.622 116.102 100.295 115.756 99.866 115.472C99.4485 115.179 98.9462 114.952 98.3593 114.789C97.7838 114.626 97.1517 114.545 96.4633 114.545H93.1452V121.29Z" fill="white"/>
<path d="M129.588 113.533V114.582H121.462V129.705H117.687V114.582H109.561V113.533H129.588Z" fill="white"/>
<path d="M141.546 129.059C142.099 129.059 142.646 129.006 143.188 128.9C143.73 128.787 144.215 128.624 144.644 128.412C145.073 128.193 145.417 127.929 145.677 127.62C145.936 127.303 146.066 126.937 146.066 126.522C146.066 126.026 145.885 125.587 145.524 125.205C145.174 124.814 144.712 124.461 144.136 124.144C143.561 123.818 142.9 123.514 142.155 123.229C141.422 122.944 140.671 122.66 139.904 122.375C139.136 122.091 138.38 121.794 137.635 121.485C136.902 121.168 136.247 120.818 135.672 120.436C135.096 120.046 134.628 119.615 134.266 119.143C133.917 118.663 133.742 118.114 133.742 117.497C133.742 116.879 133.9 116.305 134.216 115.777C134.543 115.248 135.017 114.793 135.638 114.411C136.258 114.021 137.02 113.716 137.923 113.496C138.837 113.277 139.881 113.167 141.055 113.167C142.116 113.167 143.064 113.248 143.899 113.411C144.734 113.573 145.468 113.813 146.1 114.13C146.732 114.447 147.268 114.838 147.708 115.301C148.148 115.765 148.504 116.301 148.775 116.911L146.845 117.545C146.619 117.049 146.331 116.598 145.981 116.192C145.631 115.777 145.214 115.423 144.729 115.13C144.243 114.838 143.679 114.614 143.036 114.46C142.404 114.297 141.687 114.216 140.886 114.216C140.175 114.216 139.554 114.289 139.024 114.435C138.493 114.573 138.047 114.76 137.686 114.996C137.336 115.224 137.071 115.484 136.89 115.777C136.721 116.061 136.637 116.354 136.637 116.655C136.637 117.078 136.817 117.468 137.178 117.826C137.539 118.175 138.019 118.509 138.617 118.826C139.215 119.135 139.893 119.436 140.649 119.729C141.416 120.021 142.195 120.318 142.985 120.619C143.775 120.92 144.548 121.233 145.304 121.558C146.072 121.883 146.754 122.241 147.353 122.631C147.951 123.013 148.43 123.436 148.792 123.9C149.153 124.355 149.333 124.867 149.333 125.437C149.333 126.079 149.164 126.685 148.825 127.254C148.487 127.815 147.979 128.307 147.302 128.73C146.625 129.144 145.784 129.474 144.779 129.718C143.775 129.961 142.607 130.083 141.275 130.083C140.192 130.083 139.227 129.998 138.38 129.827C137.534 129.657 136.783 129.409 136.129 129.083C135.485 128.758 134.932 128.364 134.47 127.9C134.007 127.429 133.629 126.892 133.335 126.29L135.35 125.693C135.587 126.221 135.903 126.693 136.298 127.107C136.704 127.522 137.173 127.876 137.703 128.169C138.233 128.453 138.82 128.673 139.464 128.827C140.118 128.982 140.812 129.059 141.546 129.059Z" fill="white"/>
</svg>
