<svg width="108" height="36" viewBox="0 0 108 36" fill="none" xmlns="http://www.w3.org/2000/svg">
<path d="M44.0009 11.8328V17.7263H40.95V5.35545H44.0009V10.7745H48.9943V5.35545H52.0178V17.7263H48.9943V11.8328H44.0009Z" fill="#F4CF09"/>
<path d="M60.7276 18C59.7259 18 58.7913 17.8388 57.924 17.5165C57.0566 17.1941 56.3053 16.7441 55.6701 16.1663C55.0349 15.5824 54.534 14.8921 54.1675 14.0953C53.8071 13.2925 53.627 12.4137 53.627 11.4588C53.627 10.5221 53.8071 9.66457 54.1675 8.88607C54.534 8.10149 55.0349 7.42943 55.6701 6.86988C56.3053 6.31033 57.0566 5.87547 57.924 5.56528C58.7913 5.2551 59.7259 5.10001 60.7276 5.10001C61.7293 5.10001 62.6608 5.25814 63.522 5.5744C64.3894 5.88459 65.1407 6.31945 65.7759 6.879C66.4173 7.43855 66.9212 8.10757 67.2877 8.88607C67.6542 9.65849 67.8374 10.5069 67.8374 11.4314C67.8374 12.0883 67.7549 12.7086 67.59 13.2925C67.4251 13.8703 67.1899 14.4025 66.8845 14.889C66.5791 15.3756 66.2126 15.8105 65.7851 16.1936C65.3575 16.5768 64.878 16.9022 64.3466 17.1698C63.8213 17.4374 63.2533 17.6412 62.6425 17.7811C62.0317 17.927 61.3934 18 60.7276 18ZM60.7276 16.96C61.3323 16.96 61.8667 16.8231 62.331 16.5494C62.7952 16.2697 63.183 15.8865 63.4946 15.3999C63.8061 14.9134 64.0412 14.3356 64.2 13.6666C64.365 12.9914 64.4474 12.2555 64.4474 11.4588C64.4474 10.6742 64.365 9.95651 64.2 9.30573C64.0412 8.65496 63.8061 8.09541 63.4946 7.62709C63.183 7.15878 62.7952 6.79385 62.331 6.53233C61.8667 6.2708 61.3323 6.14003 60.7276 6.14003C60.1168 6.14003 59.5793 6.2708 59.1151 6.53233C58.6508 6.79385 58.263 7.15878 57.9515 7.62709C57.64 8.09541 57.4048 8.65496 57.246 9.30573C57.0872 9.95651 57.0078 10.6742 57.0078 11.4588C57.0078 12.2555 57.0872 12.9914 57.246 13.6666C57.4048 14.3356 57.64 14.9134 57.9515 15.3999C58.263 15.8865 58.6508 16.2697 59.1151 16.5494C59.5793 16.8231 60.1168 16.96 60.7276 16.96Z" fill="#F4CF09"/>
<path d="M69.4183 5.35545H72.4693V13.3108C72.4693 13.7852 72.5426 14.2322 72.6892 14.6518C72.8419 15.0715 73.0556 15.4395 73.3305 15.7557C73.6115 16.0659 73.9474 16.3122 74.3383 16.4947C74.7354 16.6772 75.1813 16.7684 75.676 16.7684C76.1586 16.7684 76.5953 16.6772 76.9862 16.4947C77.3771 16.3122 77.71 16.0659 77.9849 15.7557C78.2597 15.4395 78.4705 15.0715 78.6171 14.6518C78.7698 14.2322 78.8461 13.7852 78.8461 13.3108V5.35545H80.7701V13.3108C80.7701 13.9494 80.6602 14.5545 80.4403 15.1262C80.2265 15.6919 79.8875 16.1876 79.4233 16.6133C78.9591 17.039 78.3636 17.3766 77.6367 17.626C76.9098 17.8753 76.0364 18 75.0163 18C74.1062 18 73.3 17.8753 72.5975 17.626C71.9012 17.3766 71.3179 17.039 70.8476 16.6133C70.3773 16.1815 70.0199 15.6797 69.7756 15.108C69.5374 14.5363 69.4183 13.9281 69.4183 13.2834V5.35545Z" fill="#F4CF09"/>
<path d="M87.1425 17.9088C86.3974 17.9088 85.7438 17.8236 85.1819 17.6533C84.626 17.477 84.1526 17.2367 83.7617 16.9326C83.3708 16.6285 83.0593 16.2666 82.8272 15.847C82.5951 15.4212 82.4363 14.9559 82.3508 14.4511H84.4672C84.5405 14.7613 84.6474 15.0502 84.7879 15.3178C84.9284 15.5854 85.1055 15.8196 85.3193 16.0203C85.5392 16.2149 85.7957 16.37 86.0889 16.4856C86.3882 16.5951 86.7333 16.6498 87.1242 16.6498C87.3808 16.6498 87.6342 16.6224 87.8847 16.5677C88.1412 16.5129 88.3703 16.4248 88.5718 16.3031C88.7734 16.1754 88.9353 16.0142 89.0574 15.8196C89.1796 15.6189 89.2407 15.3726 89.2407 15.0806C89.2407 14.7157 89.146 14.3903 88.9566 14.1045C88.7673 13.8186 88.5169 13.5601 88.2053 13.329C87.8938 13.0918 87.5396 12.8728 87.1425 12.6721C86.7455 12.4714 86.3393 12.2707 85.924 12.07C85.5086 11.8632 85.1024 11.6473 84.7054 11.4223C84.3084 11.1972 83.9541 10.9479 83.6426 10.6742C83.3311 10.3944 83.0807 10.0812 82.8913 9.73452C82.702 9.38176 82.6073 8.98035 82.6073 8.53027C82.6073 8.03763 82.7142 7.58452 82.928 7.17094C83.1479 6.75128 83.4624 6.3894 83.8717 6.0853C84.2809 5.77511 84.7818 5.53487 85.3743 5.36457C85.9667 5.1882 86.6417 5.10001 87.3991 5.10001C88.0221 5.10001 88.5871 5.18515 89.0941 5.35545C89.601 5.52575 90.0469 5.76295 90.4317 6.06705C90.8227 6.36507 91.1494 6.71783 91.4121 7.12532C91.6747 7.52674 91.8763 7.95856 92.0168 8.4208H90.1019C89.992 8.12886 89.8637 7.84909 89.7171 7.58148C89.5705 7.31387 89.3903 7.07971 89.1765 6.879C88.9627 6.67829 88.7032 6.52016 88.3978 6.4046C88.0924 6.28296 87.7289 6.22214 87.3075 6.22214C86.9104 6.22214 86.5745 6.27384 86.2996 6.37723C86.0309 6.48063 85.814 6.61443 85.6491 6.77865C85.4842 6.93678 85.3651 7.1162 85.2918 7.31691C85.2185 7.51153 85.1819 7.70312 85.1819 7.89166C85.1819 8.22009 85.2796 8.51811 85.475 8.78572C85.6705 9.05333 85.927 9.30269 86.2447 9.53381C86.5684 9.76493 86.9349 9.98692 87.3441 10.1998C87.7534 10.4066 88.1687 10.6164 88.5902 10.8293C89.0177 11.0422 89.4361 11.2672 89.8454 11.5044C90.2546 11.7355 90.618 11.991 90.9357 12.2707C91.2594 12.5505 91.519 12.8607 91.7144 13.2013C91.9099 13.5419 92.0076 13.925 92.0076 14.3508C92.0076 14.8556 91.9038 15.3239 91.6961 15.7557C91.4884 16.1876 91.18 16.5646 90.7707 16.887C90.3615 17.2033 89.8515 17.4526 89.2407 17.6351C88.636 17.8175 87.9366 17.9088 87.1425 17.9088Z" fill="#F4CF09"/>
<path d="M102.9 5.35545V6.41373H96.6697V10.4917H101.846V11.55H96.6697V16.4582H102.9V17.7263H93.6187V5.35545H102.9Z" fill="#F4CF09"/>
<path d="M44.6447 30.3731C44.8936 30.3731 45.1399 30.3459 45.3837 30.2916C45.6274 30.233 45.8458 30.1494 46.0388 30.0407C46.2318 29.9278 46.3867 29.7919 46.5035 29.633C46.6203 29.4699 46.6787 29.2817 46.6787 29.0684C46.6787 28.8134 46.5975 28.5875 46.435 28.391C46.2775 28.1903 46.0693 28.0084 45.8103 27.8453C45.5513 27.678 45.2542 27.5212 44.919 27.3749C44.5888 27.2285 44.2511 27.0821 43.9058 26.9358C43.5604 26.7894 43.2201 26.6368 42.8849 26.4779C42.5548 26.3148 42.2603 26.135 42.0012 25.9384C41.7422 25.7377 41.5315 25.5161 41.3689 25.2736C41.2115 25.0268 41.1328 24.7446 41.1328 24.4268C41.1328 24.109 41.2039 23.8141 41.3461 23.5423C41.4934 23.2705 41.7067 23.0363 41.986 22.8398C42.2653 22.6391 42.6081 22.4823 43.0144 22.3694C43.4258 22.2565 43.8956 22.2 44.4238 22.2C44.9012 22.2 45.3278 22.2418 45.7036 22.3255C46.0794 22.4091 46.4096 22.5325 46.694 22.6955C46.9784 22.8586 47.2196 23.0593 47.4177 23.2977C47.6158 23.5361 47.7757 23.8121 47.8976 24.1257L47.0292 24.4519C46.9276 24.1968 46.7981 23.9647 46.6406 23.7556C46.4832 23.5423 46.2953 23.3604 46.0769 23.2099C45.8585 23.0593 45.6046 22.9444 45.3151 22.8649C45.0307 22.7813 44.7082 22.7394 44.3476 22.7394C44.0276 22.7394 43.7483 22.7771 43.5096 22.8524C43.2709 22.9234 43.0703 23.0196 42.9078 23.1409C42.7504 23.258 42.631 23.3918 42.5497 23.5423C42.4736 23.6887 42.4355 23.8392 42.4355 23.994C42.4355 24.2114 42.5167 24.4121 42.6793 24.5961C42.8418 24.7759 43.0576 24.9474 43.3268 25.1105C43.596 25.2694 43.9007 25.4241 44.241 25.5746C44.5863 25.7252 44.9367 25.8778 45.2922 26.0325C45.6478 26.1873 45.9956 26.3482 46.3359 26.5155C46.6813 26.6828 46.9885 26.8668 47.2577 27.0675C47.5269 27.264 47.7427 27.4815 47.9052 27.7198C48.0678 27.954 48.149 28.2175 48.149 28.5102C48.149 28.8405 48.0728 29.1521 47.9205 29.4448C47.7681 29.7333 47.5396 29.9863 47.2348 30.2038C46.9301 30.417 46.5518 30.5864 46.0998 30.7118C45.6478 30.8373 45.1221 30.9 44.5228 30.9C44.0353 30.9 43.601 30.8561 43.2201 30.7683C42.8392 30.6805 42.5015 30.5529 42.2069 30.3857C41.9174 30.2184 41.6686 30.0156 41.4604 29.7772C41.2521 29.5347 41.082 29.2587 40.95 28.9493L41.8565 28.6419C41.9632 28.9137 42.1054 29.1562 42.2831 29.3695C42.4659 29.5828 42.6767 29.7647 42.9154 29.9152C43.1541 30.0616 43.4182 30.1745 43.7077 30.2539C44.0023 30.3334 44.3146 30.3731 44.6447 30.3731Z" fill="white"/>
<path d="M50.9228 22.3882H52.6597L56.5906 28.7674H56.6744L60.5291 22.3882H62.2356V30.7056H60.5291V23.8873H60.4758L56.3316 30.7056H55.9812L51.7912 23.9438H51.677V30.7056H50.9228V22.3882Z" fill="white"/>
<path d="M69.3486 22.2L74.1023 30.7056H72.373L70.8341 27.9331H66.4994L64.9073 30.7056H64.054L68.922 22.2H69.3486ZM66.7965 27.3937H70.5218L68.6858 24.1006L66.7965 27.3937Z" fill="white"/>
<path d="M75.9165 22.3882H79.4208C80.0252 22.3882 80.5559 22.4425 81.013 22.5513C81.47 22.6558 81.851 22.8043 82.1557 22.9966C82.4604 23.189 82.6889 23.419 82.8413 23.6866C82.9987 23.95 83.0775 24.2386 83.0775 24.5522C83.0775 24.8115 83.0165 25.054 82.8946 25.2798C82.7778 25.5056 82.6102 25.7105 82.3918 25.8945C82.1785 26.0743 81.9195 26.2312 81.6148 26.365C81.3101 26.4946 80.9749 26.5971 80.6092 26.6723L84.2887 30.7056H82.3157L78.8037 26.7978H77.6153V30.7056H75.9165V22.3882ZM77.6153 26.3775H78.598C78.9789 26.3775 79.3294 26.3357 79.6493 26.2521C79.9744 26.1684 80.2537 26.0513 80.4873 25.9008C80.726 25.7461 80.9114 25.56 81.0434 25.3426C81.1755 25.1251 81.2415 24.8805 81.2415 24.6087C81.2415 24.3578 81.1882 24.1278 81.0815 23.9187C80.98 23.7096 80.8327 23.5319 80.6397 23.3855C80.4518 23.235 80.2258 23.1179 79.9617 23.0343C79.7027 22.9506 79.4183 22.9088 79.1085 22.9088H77.6153V26.3775Z" fill="white"/>
<path d="M94.0146 22.3882V22.9276H90.3579V30.7056H88.6591V22.9276H85.0024V22.3882H94.0146Z" fill="white"/>
<path d="M99.3956 30.3731C99.6445 30.3731 99.8908 30.3459 100.135 30.2916C100.378 30.233 100.597 30.1494 100.79 30.0407C100.983 29.9278 101.138 29.7919 101.254 29.633C101.371 29.4699 101.43 29.2817 101.43 29.0684C101.43 28.8134 101.348 28.5875 101.186 28.391C101.028 28.1903 100.82 28.0084 100.561 27.8453C100.302 27.678 100.005 27.5212 99.6699 27.3749C99.3398 27.2285 99.002 27.0821 98.6567 26.9358C98.3113 26.7894 97.9711 26.6368 97.6359 26.4779C97.3057 26.3148 97.0112 26.135 96.7522 25.9384C96.4932 25.7377 96.2824 25.5161 96.1199 25.2736C95.9624 25.0268 95.8837 24.7446 95.8837 24.4268C95.8837 24.109 95.9548 23.8141 96.097 23.5423C96.2443 23.2705 96.4576 23.0363 96.7369 22.8398C97.0163 22.6391 97.3591 22.4823 97.7654 22.3694C98.1768 22.2565 98.6465 22.2 99.1747 22.2C99.6521 22.2 100.079 22.2418 100.455 22.3255C100.83 22.4091 101.16 22.5325 101.445 22.6955C101.729 22.8586 101.971 23.0593 102.169 23.2977C102.367 23.5361 102.527 23.8121 102.649 24.1257L101.78 24.4519C101.679 24.1968 101.549 23.9647 101.392 23.7556C101.234 23.5423 101.046 23.3604 100.828 23.2099C100.609 23.0593 100.356 22.9444 100.066 22.8649C99.7816 22.7813 99.4591 22.7394 99.0985 22.7394C98.7786 22.7394 98.4992 22.7771 98.2605 22.8524C98.0218 22.9234 97.8212 23.0196 97.6587 23.1409C97.5013 23.258 97.3819 23.3918 97.3007 23.5423C97.2245 23.6887 97.1864 23.8392 97.1864 23.994C97.1864 24.2114 97.2677 24.4121 97.4302 24.5961C97.5927 24.7759 97.8085 24.9474 98.0777 25.1105C98.3469 25.2694 98.6516 25.4241 98.9919 25.5746C99.3372 25.7252 99.6877 25.8778 100.043 26.0325C100.399 26.1873 100.747 26.3482 101.087 26.5155C101.432 26.6828 101.739 26.8668 102.009 27.0675C102.278 27.264 102.494 27.4815 102.656 27.7198C102.819 27.954 102.9 28.2175 102.9 28.5102C102.9 28.8405 102.824 29.1521 102.671 29.4448C102.519 29.7333 102.291 29.9863 101.986 30.2038C101.681 30.417 101.303 30.5864 100.851 30.7118C100.399 30.8373 99.873 30.9 99.2738 30.9C98.7862 30.9 98.352 30.8561 97.9711 30.7683C97.5902 30.6805 97.2524 30.5529 96.9579 30.3857C96.6684 30.2184 96.4195 30.0156 96.2113 29.7772C96.0031 29.5347 95.8329 29.2587 95.7009 28.9493L96.6074 28.6419C96.7141 28.9137 96.8563 29.1562 97.034 29.3695C97.2169 29.5828 97.4276 29.7647 97.6663 29.9152C97.905 30.0616 98.1691 30.1745 98.4586 30.2539C98.7532 30.3334 99.0655 30.3731 99.3956 30.3731Z" fill="white"/>
<path d="M4.94995 20.0175L19.5841 5.10001V18.938C18.0053 19.1199 16.7792 20.4645 16.7792 22.0962C16.7792 23.7279 18.0053 25.0726 19.5841 25.2544V30.9H15.9256V14.5152L8.60849 21.9386V27.354H13.7914V30.9H4.94995V20.0175Z" fill="#F4CF09"/>
<path d="M34.9499 20.0175L20.3158 5.10001V18.938C21.8946 19.1199 23.1207 20.4645 23.1207 22.0962C23.1207 23.7279 21.8946 25.0726 20.3158 25.2544V30.9H23.9743V14.5152L31.2914 21.9386V27.354H26.1085V30.9H34.9499V20.0175Z" fill="white"/>
<ellipse cx="19.9499" cy="22.0962" rx="2.43903" ry="2.4455" fill="white"/>
<path d="M7.51099 8.52377H13.1207V10.6024L7.51099 16.2271V8.52377Z" fill="white"/>
</svg>
