<svg width="315" height="278" viewBox="0 0 315 278" fill="none" xmlns="http://www.w3.org/2000/svg">
<path d="M115.833 55.6043L156.484 14.1667V52.6055C152.098 53.1107 148.692 56.8458 148.692 61.3783C148.692 65.9109 152.098 69.646 156.484 70.1512V85.8333H146.321V40.3199L125.996 60.9405V75.9834H140.393V85.8333H115.833V55.6043Z" fill="#F4CF09"/>
<path d="M199.167 55.6043L158.516 14.1667V52.6055C162.902 53.1107 166.308 56.8458 166.308 61.3783C166.308 65.9109 162.902 69.646 158.516 70.1512V85.8333H168.679V40.3199L189.004 60.9405V75.9834H174.607V85.8333H199.167V55.6043Z" fill="white"/>
<ellipse cx="157.5" cy="61.3784" rx="6.77507" ry="6.79305" fill="white"/>
<path d="M122.947 23.6771H138.53V29.4512L122.947 45.0752V23.6771Z" fill="white"/>
<path d="M80.5583 132.869V149.24H72.0833V114.876H80.5583V129.929H94.4287V114.876H102.827V149.24H94.4287V132.869H80.5583Z" fill="#F4CF09"/>
<path d="M127.021 150C124.239 150 121.643 149.552 119.233 148.657C116.824 147.761 114.737 146.511 112.973 144.906C111.208 143.284 109.817 141.367 108.799 139.154C107.798 136.924 107.297 134.482 107.297 131.83C107.297 129.228 107.798 126.846 108.799 124.684C109.817 122.504 111.208 120.637 112.973 119.083C114.737 117.529 116.824 116.321 119.233 115.459C121.643 114.597 124.239 114.167 127.021 114.167C129.804 114.167 132.391 114.606 134.784 115.484C137.193 116.346 139.28 117.554 141.044 119.108C142.826 120.663 144.226 122.521 145.244 124.684C146.262 126.829 146.771 129.186 146.771 131.754C146.771 133.579 146.542 135.302 146.084 136.924C145.625 138.529 144.972 140.007 144.124 141.358C143.276 142.71 142.257 143.918 141.07 144.982C139.882 146.047 138.55 146.951 137.074 147.694C135.615 148.437 134.037 149.003 132.34 149.392C130.644 149.797 128.871 150 127.021 150ZM127.021 147.111C128.701 147.111 130.186 146.731 131.475 145.971C132.765 145.194 133.842 144.129 134.707 142.778C135.573 141.426 136.226 139.821 136.667 137.963C137.125 136.087 137.354 134.043 137.354 131.83C137.354 129.651 137.125 127.657 136.667 125.849C136.226 124.042 135.573 122.487 134.707 121.186C133.842 119.885 132.765 118.872 131.475 118.145C130.186 117.419 128.701 117.056 127.021 117.056C125.325 117.056 123.831 117.419 122.542 118.145C121.252 118.872 120.175 119.885 119.31 121.186C118.444 122.487 117.791 124.042 117.35 125.849C116.909 127.657 116.688 129.651 116.688 131.83C116.688 134.043 116.909 136.087 117.35 137.963C117.791 139.821 118.444 141.426 119.31 142.778C120.175 144.129 121.252 145.194 122.542 145.971C123.831 146.731 125.325 147.111 127.021 147.111Z" fill="#F4CF09"/>
<path d="M151.162 114.876H159.637V136.974C159.637 138.292 159.841 139.534 160.248 140.7C160.672 141.865 161.266 142.887 162.029 143.766C162.81 144.628 163.743 145.312 164.829 145.819C165.932 146.325 167.17 146.579 168.545 146.579C169.885 146.579 171.098 146.325 172.184 145.819C173.27 145.312 174.195 144.628 174.958 143.766C175.722 142.887 176.307 141.865 176.714 140.7C177.138 139.534 177.35 138.292 177.35 136.974V114.876H182.695V136.974C182.695 138.748 182.39 140.429 181.779 142.017C181.185 143.589 180.243 144.965 178.954 146.148C177.664 147.331 176.01 148.268 173.991 148.961C171.972 149.654 169.546 150 166.712 150C164.184 150 161.945 149.654 159.993 148.961C158.059 148.268 156.439 147.331 155.132 146.148C153.826 144.949 152.833 143.555 152.155 141.967C151.493 140.379 151.162 138.689 151.162 136.898V114.876Z" fill="#F4CF09"/>
<path d="M200.396 149.747C198.326 149.747 196.511 149.51 194.95 149.037C193.406 148.547 192.091 147.88 191.005 147.035C189.919 146.19 189.054 145.185 188.409 144.019C187.764 142.837 187.323 141.544 187.086 140.142H192.965C193.168 141.004 193.465 141.806 193.855 142.55C194.246 143.293 194.738 143.943 195.331 144.501C195.942 145.041 196.655 145.472 197.469 145.793C198.301 146.097 199.259 146.249 200.345 146.249C201.058 146.249 201.762 146.173 202.458 146.021C203.17 145.869 203.806 145.624 204.366 145.286C204.926 144.932 205.376 144.484 205.715 143.943C206.055 143.386 206.224 142.702 206.224 141.891C206.224 140.877 205.961 139.973 205.435 139.179C204.909 138.385 204.214 137.667 203.348 137.025C202.483 136.366 201.499 135.758 200.396 135.2C199.293 134.643 198.165 134.085 197.011 133.528C195.857 132.953 194.729 132.354 193.626 131.729C192.523 131.103 191.539 130.411 190.674 129.651C189.809 128.873 189.113 128.003 188.587 127.04C188.061 126.06 187.798 124.945 187.798 123.695C187.798 122.327 188.095 121.068 188.689 119.919C189.3 118.754 190.174 117.748 191.31 116.904C192.447 116.042 193.838 115.375 195.484 114.902C197.13 114.412 199.005 114.167 201.109 114.167C202.839 114.167 204.409 114.403 205.817 114.876C207.225 115.349 208.464 116.008 209.533 116.853C210.619 117.681 211.526 118.661 212.256 119.793C212.986 120.908 213.545 122.107 213.936 123.391H208.617C208.311 122.58 207.955 121.803 207.548 121.06C207.14 120.316 206.64 119.666 206.046 119.108C205.452 118.551 204.731 118.112 203.883 117.791C203.034 117.453 202.025 117.284 200.854 117.284C199.751 117.284 198.818 117.427 198.055 117.715C197.308 118.002 196.706 118.373 196.248 118.83C195.79 119.269 195.459 119.767 195.255 120.325C195.052 120.865 194.95 121.398 194.95 121.921C194.95 122.834 195.221 123.661 195.764 124.405C196.307 125.148 197.02 125.841 197.902 126.483C198.801 127.125 199.819 127.741 200.956 128.333C202.093 128.907 203.247 129.49 204.417 130.081C205.605 130.673 206.767 131.298 207.904 131.957C209.041 132.599 210.05 133.308 210.933 134.085C211.832 134.862 212.553 135.724 213.096 136.67C213.639 137.616 213.91 138.681 213.91 139.863C213.91 141.266 213.622 142.566 213.045 143.766C212.468 144.965 211.611 146.013 210.474 146.908C209.338 147.787 207.921 148.479 206.224 148.986C204.545 149.493 202.602 149.747 200.396 149.747Z" fill="#F4CF09"/>
<path d="M244.167 114.876V117.816H226.86V129.144H241.24V132.083H226.86V145.717H244.167V149.24H218.386V114.876H244.167Z" fill="#F4CF09"/>
<path d="M82.3466 184.37C83.0378 184.37 83.722 184.294 84.3992 184.143C85.0764 183.981 85.683 183.748 86.2191 183.446C86.7552 183.133 87.1854 182.755 87.5099 182.314C87.8344 181.861 87.9966 181.338 87.9966 180.746C87.9966 180.037 87.7709 179.41 87.3195 178.864C86.8821 178.306 86.3037 177.801 85.5842 177.348C84.8647 176.883 84.0395 176.448 83.1084 176.041C82.1914 175.635 81.2532 175.228 80.2939 174.822C79.3346 174.415 78.3894 173.991 77.4583 173.55C76.5413 173.097 75.7231 172.597 75.0036 172.051C74.2841 171.494 73.6986 170.878 73.2472 170.204C72.8099 169.519 72.5912 168.735 72.5912 167.852C72.5912 166.969 72.7887 166.15 73.1837 165.395C73.5928 164.64 74.1854 163.99 74.9613 163.444C75.7372 162.886 76.6894 162.451 77.818 162.137C78.9608 161.823 80.2657 161.667 81.7329 161.667C83.059 161.667 84.244 161.783 85.288 162.015C86.3319 162.247 87.2489 162.59 88.0389 163.043C88.829 163.496 89.4991 164.054 90.0493 164.716C90.5995 165.378 91.0438 166.145 91.3824 167.016L88.97 167.922C88.6879 167.213 88.3281 166.569 87.8908 165.988C87.4535 165.395 86.9315 164.89 86.3249 164.472C85.7183 164.054 85.0129 163.734 84.2087 163.514C83.4187 163.281 82.5229 163.165 81.5213 163.165C80.6325 163.165 79.8566 163.27 79.1935 163.479C78.5305 163.676 77.9732 163.943 77.5218 164.28C77.0845 164.605 76.7529 164.977 76.5272 165.395C76.3156 165.802 76.2098 166.22 76.2098 166.65C76.2098 167.254 76.4355 167.811 76.8869 168.323C77.3384 168.822 77.938 169.298 78.6857 169.751C79.4334 170.193 80.2798 170.622 81.225 171.041C82.1843 171.459 83.1577 171.883 84.1453 172.313C85.1328 172.742 86.0992 173.19 87.0444 173.654C88.0037 174.119 88.8572 174.63 89.6049 175.187C90.3526 175.733 90.9521 176.337 91.4036 177C91.855 177.65 92.0807 178.382 92.0807 179.195C92.0807 180.113 91.8691 180.978 91.4459 181.791C91.0227 182.593 90.3878 183.295 89.5414 183.899C88.6949 184.492 87.6439 184.962 86.3884 185.311C85.1328 185.659 83.6727 185.833 82.008 185.833C80.6537 185.833 79.4475 185.711 78.3894 185.467C77.3313 185.223 76.3932 184.869 75.5749 184.405C74.7708 183.94 74.0795 183.377 73.5011 182.714C72.9227 182.041 72.4501 181.274 72.0833 180.415L74.6015 179.561C74.8978 180.316 75.2928 180.99 75.7866 181.582C76.2944 182.174 76.8799 182.68 77.5429 183.098C78.206 183.504 78.9396 183.818 79.7437 184.039C80.562 184.259 81.4296 184.37 82.3466 184.37Z" fill="white"/>
<path d="M99.7856 162.189H104.61L115.53 179.909H115.762L126.47 162.189H131.21V185.293H126.47V166.354H126.322L114.81 185.293H113.837L102.198 166.51H101.881V185.293H99.7856V162.189Z" fill="white"/>
<path d="M150.968 161.667L164.173 185.293H159.369L155.095 177.592H143.054L138.631 185.293H136.261L149.783 161.667H150.968ZM143.879 176.093H154.227L149.127 166.946L143.879 176.093Z" fill="white"/>
<path d="M169.213 162.189H178.947C180.626 162.189 182.1 162.34 183.369 162.642C184.639 162.933 185.697 163.345 186.544 163.879C187.39 164.414 188.025 165.053 188.448 165.796C188.886 166.528 189.104 167.329 189.104 168.201C189.104 168.921 188.935 169.594 188.596 170.222C188.272 170.849 187.806 171.418 187.2 171.929C186.607 172.429 185.888 172.864 185.041 173.236C184.195 173.596 183.264 173.881 182.248 174.09L192.469 185.293H186.988L177.233 174.438H173.932V185.293H169.213V162.189ZM173.932 173.271H176.661C177.719 173.271 178.693 173.155 179.582 172.922C180.485 172.69 181.26 172.365 181.909 171.947C182.572 171.517 183.087 171 183.454 170.396C183.821 169.792 184.004 169.112 184.004 168.357C184.004 167.66 183.856 167.022 183.56 166.441C183.278 165.86 182.869 165.366 182.333 164.96C181.811 164.542 181.183 164.216 180.449 163.984C179.73 163.752 178.94 163.636 178.079 163.636H173.932V173.271Z" fill="white"/>
<path d="M219.485 162.189V163.688H209.328V185.293H204.609V163.688H194.451V162.189H219.485Z" fill="white"/>
<path d="M234.433 184.37C235.124 184.37 235.808 184.294 236.485 184.143C237.162 183.981 237.769 183.748 238.305 183.446C238.841 183.133 239.271 182.755 239.596 182.314C239.92 181.861 240.083 181.338 240.083 180.746C240.083 180.037 239.857 179.41 239.405 178.864C238.968 178.306 238.39 177.801 237.67 177.348C236.951 176.883 236.125 176.448 235.194 176.041C234.277 175.635 233.339 175.228 232.38 174.822C231.421 174.415 230.475 173.991 229.544 173.55C228.627 173.097 227.809 172.597 227.09 172.051C226.37 171.494 225.785 170.878 225.333 170.204C224.896 169.519 224.677 168.735 224.677 167.852C224.677 166.969 224.875 166.15 225.27 165.395C225.679 164.64 226.271 163.99 227.047 163.444C227.823 162.886 228.775 162.451 229.904 162.137C231.047 161.823 232.352 161.667 233.819 161.667C235.145 161.667 236.33 161.783 237.374 162.015C238.418 162.247 239.335 162.59 240.125 163.043C240.915 163.496 241.585 164.054 242.135 164.716C242.685 165.378 243.13 166.145 243.468 167.016L241.056 167.922C240.774 167.213 240.414 166.569 239.977 165.988C239.539 165.395 239.017 164.89 238.411 164.472C237.804 164.054 237.099 163.734 236.295 163.514C235.505 163.281 234.609 163.165 233.607 163.165C232.718 163.165 231.943 163.27 231.279 163.479C230.616 163.676 230.059 163.943 229.608 164.28C229.17 164.605 228.839 164.977 228.613 165.395C228.402 165.802 228.296 166.22 228.296 166.65C228.296 167.254 228.521 167.811 228.973 168.323C229.424 168.822 230.024 169.298 230.772 169.751C231.519 170.193 232.366 170.622 233.311 171.041C234.27 171.459 235.244 171.883 236.231 172.313C237.219 172.742 238.185 173.19 239.13 173.654C240.09 174.119 240.943 174.63 241.691 175.187C242.439 175.733 243.038 176.337 243.49 177C243.941 177.65 244.167 178.382 244.167 179.195C244.167 180.113 243.955 180.978 243.532 181.791C243.109 182.593 242.474 183.295 241.627 183.899C240.781 184.492 239.73 184.962 238.474 185.311C237.219 185.659 235.759 185.833 234.094 185.833C232.74 185.833 231.533 185.711 230.475 185.467C229.417 185.223 228.479 184.869 227.661 184.405C226.857 183.94 226.165 183.377 225.587 182.714C225.009 182.041 224.536 181.274 224.169 180.415L226.687 179.561C226.984 180.316 227.379 180.99 227.872 181.582C228.38 182.174 228.966 182.68 229.629 183.098C230.292 183.504 231.026 183.818 231.83 184.039C232.648 184.259 233.516 184.37 234.433 184.37Z" fill="white"/>
<path d="M100.674 249V234.684H111.025V236.373H102.568V240.758H110.488V242.438H102.568V247.311H111.357V249H100.674ZM113.711 249V234.684H115.469V249H113.711ZM125.303 245.66L127.119 245.885C126.833 246.946 126.302 247.77 125.527 248.355C124.753 248.941 123.763 249.234 122.559 249.234C121.042 249.234 119.837 248.769 118.945 247.838C118.06 246.9 117.617 245.589 117.617 243.902C117.617 242.158 118.066 240.803 118.965 239.84C119.863 238.876 121.029 238.395 122.461 238.395C123.848 238.395 124.98 238.867 125.859 239.811C126.738 240.755 127.178 242.083 127.178 243.795C127.178 243.899 127.174 244.055 127.168 244.264H119.434C119.499 245.403 119.821 246.275 120.4 246.881C120.98 247.486 121.702 247.789 122.568 247.789C123.213 247.789 123.763 247.62 124.219 247.281C124.674 246.943 125.036 246.402 125.303 245.66ZM119.531 242.818H125.322C125.244 241.946 125.023 241.292 124.658 240.855C124.098 240.178 123.372 239.84 122.48 239.84C121.673 239.84 120.993 240.11 120.439 240.65C119.893 241.191 119.59 241.913 119.531 242.818ZM132.217 249L128.271 238.629H130.127L132.354 244.84C132.594 245.51 132.816 246.207 133.018 246.93C133.174 246.383 133.392 245.725 133.672 244.957L135.977 238.629H137.783L133.857 249H132.217ZM146.104 247.721C145.452 248.274 144.824 248.665 144.219 248.893C143.62 249.12 142.975 249.234 142.285 249.234C141.146 249.234 140.27 248.958 139.658 248.404C139.046 247.844 138.74 247.132 138.74 246.266C138.74 245.758 138.854 245.296 139.082 244.879C139.316 244.456 139.619 244.117 139.99 243.863C140.368 243.609 140.791 243.417 141.26 243.287C141.605 243.196 142.126 243.108 142.822 243.023C144.242 242.854 145.286 242.652 145.957 242.418C145.964 242.177 145.967 242.024 145.967 241.959C145.967 241.243 145.801 240.738 145.469 240.445C145.02 240.048 144.352 239.85 143.467 239.85C142.64 239.85 142.028 239.996 141.631 240.289C141.24 240.576 140.951 241.087 140.762 241.822L139.043 241.588C139.199 240.852 139.456 240.26 139.814 239.811C140.173 239.355 140.69 239.007 141.367 238.766C142.044 238.518 142.829 238.395 143.721 238.395C144.606 238.395 145.326 238.499 145.879 238.707C146.432 238.915 146.839 239.179 147.1 239.498C147.36 239.811 147.542 240.208 147.646 240.689C147.705 240.989 147.734 241.529 147.734 242.311V244.654C147.734 246.288 147.77 247.324 147.842 247.76C147.92 248.189 148.07 248.603 148.291 249H146.455C146.273 248.635 146.156 248.209 146.104 247.721ZM145.957 243.795C145.319 244.055 144.362 244.277 143.086 244.459C142.363 244.563 141.852 244.68 141.553 244.811C141.253 244.941 141.022 245.133 140.859 245.387C140.697 245.634 140.615 245.911 140.615 246.217C140.615 246.686 140.791 247.076 141.143 247.389C141.501 247.701 142.021 247.857 142.705 247.857C143.382 247.857 143.984 247.711 144.512 247.418C145.039 247.118 145.426 246.712 145.674 246.197C145.863 245.8 145.957 245.214 145.957 244.439V243.795ZM154.307 247.428L154.561 248.98C154.066 249.085 153.623 249.137 153.232 249.137C152.594 249.137 152.1 249.036 151.748 248.834C151.396 248.632 151.149 248.368 151.006 248.043C150.863 247.711 150.791 247.018 150.791 245.963V239.996H149.502V238.629H150.791V236.061L152.539 235.006V238.629H154.307V239.996H152.539V246.061C152.539 246.562 152.568 246.884 152.627 247.027C152.692 247.171 152.793 247.285 152.93 247.369C153.073 247.454 153.275 247.496 153.535 247.496C153.73 247.496 153.988 247.473 154.307 247.428ZM163.135 245.66L164.951 245.885C164.665 246.946 164.134 247.77 163.359 248.355C162.585 248.941 161.595 249.234 160.391 249.234C158.874 249.234 157.669 248.769 156.777 247.838C155.892 246.9 155.449 245.589 155.449 243.902C155.449 242.158 155.898 240.803 156.797 239.84C157.695 238.876 158.861 238.395 160.293 238.395C161.68 238.395 162.812 238.867 163.691 239.811C164.57 240.755 165.01 242.083 165.01 243.795C165.01 243.899 165.007 244.055 165 244.264H157.266C157.331 245.403 157.653 246.275 158.232 246.881C158.812 247.486 159.535 247.789 160.4 247.789C161.045 247.789 161.595 247.62 162.051 247.281C162.507 246.943 162.868 246.402 163.135 245.66ZM157.363 242.818H163.154C163.076 241.946 162.855 241.292 162.49 240.855C161.93 240.178 161.204 239.84 160.312 239.84C159.505 239.84 158.825 240.11 158.271 240.65C157.725 241.191 157.422 241.913 157.363 242.818ZM172.656 252.994L172.461 251.344C172.845 251.448 173.18 251.5 173.467 251.5C173.857 251.5 174.17 251.435 174.404 251.305C174.639 251.174 174.831 250.992 174.98 250.758C175.091 250.582 175.27 250.146 175.518 249.449C175.55 249.352 175.602 249.208 175.674 249.02L171.738 238.629H173.633L175.791 244.635C176.071 245.396 176.322 246.197 176.543 247.037C176.745 246.23 176.986 245.442 177.266 244.674L179.482 238.629H181.24L177.295 249.176C176.872 250.315 176.543 251.1 176.309 251.529C175.996 252.109 175.638 252.532 175.234 252.799C174.831 253.072 174.349 253.209 173.789 253.209C173.451 253.209 173.073 253.137 172.656 252.994ZM182.08 243.814C182.08 241.894 182.614 240.471 183.682 239.547C184.574 238.779 185.661 238.395 186.943 238.395C188.369 238.395 189.535 238.863 190.439 239.801C191.344 240.732 191.797 242.021 191.797 243.668C191.797 245.003 191.595 246.054 191.191 246.822C190.794 247.584 190.212 248.176 189.443 248.6C188.682 249.023 187.848 249.234 186.943 249.234C185.492 249.234 184.316 248.769 183.418 247.838C182.526 246.907 182.08 245.566 182.08 243.814ZM183.887 243.814C183.887 245.143 184.176 246.139 184.756 246.803C185.335 247.46 186.064 247.789 186.943 247.789C187.816 247.789 188.542 247.457 189.121 246.793C189.701 246.129 189.99 245.117 189.99 243.756C189.99 242.473 189.697 241.503 189.111 240.846C188.532 240.182 187.809 239.85 186.943 239.85C186.064 239.85 185.335 240.178 184.756 240.836C184.176 241.493 183.887 242.486 183.887 243.814ZM200.664 249V247.477C199.857 248.648 198.76 249.234 197.373 249.234C196.761 249.234 196.188 249.117 195.654 248.883C195.127 248.648 194.733 248.355 194.473 248.004C194.219 247.646 194.04 247.21 193.936 246.695C193.864 246.35 193.828 245.803 193.828 245.055V238.629H195.586V244.381C195.586 245.299 195.622 245.917 195.693 246.236C195.804 246.699 196.038 247.063 196.396 247.33C196.755 247.59 197.197 247.721 197.725 247.721C198.252 247.721 198.747 247.587 199.209 247.32C199.671 247.047 199.997 246.679 200.186 246.217C200.381 245.748 200.479 245.071 200.479 244.186V238.629H202.236V249H200.664ZM204.98 249V238.629H206.562V240.201C206.966 239.465 207.337 238.98 207.676 238.746C208.021 238.512 208.398 238.395 208.809 238.395C209.401 238.395 210.003 238.583 210.615 238.961L210.01 240.592C209.58 240.338 209.15 240.211 208.721 240.211C208.337 240.211 207.992 240.328 207.686 240.562C207.38 240.79 207.161 241.109 207.031 241.52C206.836 242.145 206.738 242.828 206.738 243.57V249H204.98ZM84.2285 273V258.684H85.9863V273H84.2285ZM88.7305 260.705V258.684H90.4883V260.705H88.7305ZM88.7305 273V262.629H90.4883V273H88.7305ZM96.0547 273L92.1094 262.629H93.9648L96.1914 268.84C96.4323 269.51 96.6536 270.207 96.8555 270.93C97.0117 270.383 97.2298 269.725 97.5098 268.957L99.8145 262.629H101.621L97.6953 273H96.0547ZM103.184 260.705V258.684H104.941V260.705H103.184ZM103.184 273V262.629H104.941V273H103.184ZM107.627 273V262.629H109.209V264.104C109.971 262.964 111.071 262.395 112.51 262.395C113.135 262.395 113.708 262.508 114.229 262.736C114.756 262.958 115.15 263.251 115.41 263.615C115.671 263.98 115.853 264.413 115.957 264.914C116.022 265.24 116.055 265.809 116.055 266.623V273H114.297V266.691C114.297 265.975 114.229 265.441 114.092 265.09C113.955 264.732 113.711 264.449 113.359 264.24C113.014 264.025 112.607 263.918 112.139 263.918C111.39 263.918 110.742 264.156 110.195 264.631C109.655 265.106 109.385 266.008 109.385 267.336V273H107.627ZM118.438 273.859L120.146 274.113C120.218 274.641 120.417 275.025 120.742 275.266C121.178 275.591 121.774 275.754 122.529 275.754C123.343 275.754 123.971 275.591 124.414 275.266C124.857 274.94 125.156 274.484 125.312 273.898C125.404 273.54 125.446 272.788 125.439 271.643C124.671 272.548 123.714 273 122.568 273C121.143 273 120.039 272.486 119.258 271.457C118.477 270.428 118.086 269.195 118.086 267.756C118.086 266.766 118.265 265.855 118.623 265.021C118.981 264.182 119.499 263.534 120.176 263.078C120.859 262.622 121.66 262.395 122.578 262.395C123.802 262.395 124.811 262.889 125.605 263.879V262.629H127.227V271.594C127.227 273.208 127.061 274.351 126.729 275.021C126.403 275.699 125.882 276.232 125.166 276.623C124.456 277.014 123.581 277.209 122.539 277.209C121.302 277.209 120.303 276.929 119.541 276.369C118.779 275.816 118.411 274.979 118.438 273.859ZM119.893 267.629C119.893 268.99 120.163 269.982 120.703 270.607C121.243 271.232 121.921 271.545 122.734 271.545C123.542 271.545 124.219 271.236 124.766 270.617C125.312 269.992 125.586 269.016 125.586 267.688C125.586 266.418 125.303 265.461 124.736 264.816C124.176 264.172 123.499 263.85 122.705 263.85C121.924 263.85 121.26 264.169 120.713 264.807C120.166 265.438 119.893 266.379 119.893 267.629ZM142.559 269.66L144.375 269.885C144.089 270.946 143.558 271.77 142.783 272.355C142.008 272.941 141.019 273.234 139.814 273.234C138.298 273.234 137.093 272.769 136.201 271.838C135.316 270.9 134.873 269.589 134.873 267.902C134.873 266.158 135.322 264.803 136.221 263.84C137.119 262.876 138.285 262.395 139.717 262.395C141.104 262.395 142.236 262.867 143.115 263.811C143.994 264.755 144.434 266.083 144.434 267.795C144.434 267.899 144.43 268.055 144.424 268.264H136.689C136.755 269.403 137.077 270.275 137.656 270.881C138.236 271.486 138.958 271.789 139.824 271.789C140.469 271.789 141.019 271.62 141.475 271.281C141.93 270.943 142.292 270.402 142.559 269.66ZM136.787 266.818H142.578C142.5 265.946 142.279 265.292 141.914 264.855C141.354 264.178 140.628 263.84 139.736 263.84C138.929 263.84 138.249 264.11 137.695 264.65C137.148 265.191 136.846 265.913 136.787 266.818ZM145.42 273L149.209 267.609L145.703 262.629H147.9L149.492 265.061C149.792 265.523 150.033 265.91 150.215 266.223C150.501 265.793 150.765 265.412 151.006 265.08L152.754 262.629H154.854L151.27 267.512L155.127 273H152.969L150.84 269.777L150.273 268.908L147.549 273H145.42ZM156.592 276.975V262.629H158.193V263.977C158.571 263.449 158.997 263.055 159.473 262.795C159.948 262.528 160.524 262.395 161.201 262.395C162.087 262.395 162.868 262.622 163.545 263.078C164.222 263.534 164.733 264.178 165.078 265.012C165.423 265.839 165.596 266.747 165.596 267.736C165.596 268.798 165.404 269.755 165.02 270.607C164.642 271.454 164.089 272.105 163.359 272.561C162.637 273.01 161.875 273.234 161.074 273.234C160.488 273.234 159.961 273.111 159.492 272.863C159.03 272.616 158.649 272.303 158.35 271.926V276.975H156.592ZM158.184 267.873C158.184 269.208 158.454 270.194 158.994 270.832C159.535 271.47 160.189 271.789 160.957 271.789C161.738 271.789 162.406 271.46 162.959 270.803C163.519 270.139 163.799 269.113 163.799 267.727C163.799 266.405 163.525 265.415 162.979 264.758C162.438 264.1 161.79 263.771 161.035 263.771C160.286 263.771 159.622 264.123 159.043 264.826C158.47 265.523 158.184 266.538 158.184 267.873ZM174.824 269.66L176.641 269.885C176.354 270.946 175.824 271.77 175.049 272.355C174.274 272.941 173.285 273.234 172.08 273.234C170.563 273.234 169.359 272.769 168.467 271.838C167.581 270.9 167.139 269.589 167.139 267.902C167.139 266.158 167.588 264.803 168.486 263.84C169.385 262.876 170.55 262.395 171.982 262.395C173.369 262.395 174.502 262.867 175.381 263.811C176.26 264.755 176.699 266.083 176.699 267.795C176.699 267.899 176.696 268.055 176.689 268.264H168.955C169.02 269.403 169.342 270.275 169.922 270.881C170.501 271.486 171.224 271.789 172.09 271.789C172.734 271.789 173.285 271.62 173.74 271.281C174.196 270.943 174.557 270.402 174.824 269.66ZM169.053 266.818H174.844C174.766 265.946 174.544 265.292 174.18 264.855C173.62 264.178 172.894 263.84 172.002 263.84C171.195 263.84 170.514 264.11 169.961 264.65C169.414 265.191 169.111 265.913 169.053 266.818ZM178.838 273V262.629H180.42V264.201C180.824 263.465 181.195 262.98 181.533 262.746C181.878 262.512 182.256 262.395 182.666 262.395C183.258 262.395 183.861 262.583 184.473 262.961L183.867 264.592C183.438 264.338 183.008 264.211 182.578 264.211C182.194 264.211 181.849 264.328 181.543 264.562C181.237 264.79 181.019 265.109 180.889 265.52C180.693 266.145 180.596 266.828 180.596 267.57V273H178.838ZM185.527 260.705V258.684H187.285V260.705H185.527ZM185.527 273V262.629H187.285V273H185.527ZM197.07 269.66L198.887 269.885C198.6 270.946 198.07 271.77 197.295 272.355C196.52 272.941 195.531 273.234 194.326 273.234C192.809 273.234 191.605 272.769 190.713 271.838C189.827 270.9 189.385 269.589 189.385 267.902C189.385 266.158 189.834 264.803 190.732 263.84C191.631 262.876 192.796 262.395 194.229 262.395C195.615 262.395 196.748 262.867 197.627 263.811C198.506 264.755 198.945 266.083 198.945 267.795C198.945 267.899 198.942 268.055 198.936 268.264H191.201C191.266 269.403 191.589 270.275 192.168 270.881C192.747 271.486 193.47 271.789 194.336 271.789C194.98 271.789 195.531 271.62 195.986 271.281C196.442 270.943 196.803 270.402 197.07 269.66ZM191.299 266.818H197.09C197.012 265.946 196.79 265.292 196.426 264.855C195.866 264.178 195.14 263.84 194.248 263.84C193.441 263.84 192.76 264.11 192.207 264.65C191.66 265.191 191.357 265.913 191.299 266.818ZM201.104 273V262.629H202.686V264.104C203.447 262.964 204.548 262.395 205.986 262.395C206.611 262.395 207.184 262.508 207.705 262.736C208.232 262.958 208.626 263.251 208.887 263.615C209.147 263.98 209.329 264.413 209.434 264.914C209.499 265.24 209.531 265.809 209.531 266.623V273H207.773V266.691C207.773 265.975 207.705 265.441 207.568 265.09C207.432 264.732 207.188 264.449 206.836 264.24C206.491 264.025 206.084 263.918 205.615 263.918C204.867 263.918 204.219 264.156 203.672 264.631C203.132 265.106 202.861 266.008 202.861 267.336V273H201.104ZM219.004 269.201L220.732 269.426C220.544 270.617 220.059 271.551 219.277 272.229C218.503 272.899 217.549 273.234 216.416 273.234C214.997 273.234 213.854 272.772 212.988 271.848C212.129 270.917 211.699 269.585 211.699 267.854C211.699 266.734 211.885 265.754 212.256 264.914C212.627 264.074 213.19 263.446 213.945 263.029C214.707 262.606 215.534 262.395 216.426 262.395C217.552 262.395 218.473 262.681 219.189 263.254C219.906 263.82 220.365 264.628 220.566 265.676L218.857 265.939C218.695 265.243 218.405 264.719 217.988 264.367C217.578 264.016 217.08 263.84 216.494 263.84C215.609 263.84 214.889 264.159 214.336 264.797C213.783 265.428 213.506 266.431 213.506 267.805C213.506 269.198 213.773 270.21 214.307 270.842C214.84 271.473 215.537 271.789 216.396 271.789C217.087 271.789 217.663 271.577 218.125 271.154C218.587 270.731 218.88 270.08 219.004 269.201ZM229.336 269.66L231.152 269.885C230.866 270.946 230.335 271.77 229.561 272.355C228.786 272.941 227.796 273.234 226.592 273.234C225.075 273.234 223.87 272.769 222.979 271.838C222.093 270.9 221.65 269.589 221.65 267.902C221.65 266.158 222.1 264.803 222.998 263.84C223.896 262.876 225.062 262.395 226.494 262.395C227.881 262.395 229.014 262.867 229.893 263.811C230.771 264.755 231.211 266.083 231.211 267.795C231.211 267.899 231.208 268.055 231.201 268.264H223.467C223.532 269.403 223.854 270.275 224.434 270.881C225.013 271.486 225.736 271.789 226.602 271.789C227.246 271.789 227.796 271.62 228.252 271.281C228.708 270.943 229.069 270.402 229.336 269.66ZM223.564 266.818H229.355C229.277 265.946 229.056 265.292 228.691 264.855C228.132 264.178 227.406 263.84 226.514 263.84C225.706 263.84 225.026 264.11 224.473 264.65C223.926 265.191 223.623 265.913 223.564 266.818Z" fill="white"/>
</svg>
