<svg width="48" height="48" viewBox="0 0 48 48" fill="none" xmlns="http://www.w3.org/2000/svg">
<path d="M16.0833 25.148V31.9167C16.0833 32.1267 16.1667 32.3281 16.3152 32.4765C16.4637 32.625 16.665 32.7084 16.875 32.7084H31.125C31.335 32.7084 31.5363 32.625 31.6848 32.4765C31.8333 32.3281 31.9167 32.1267 31.9167 31.9167V25.148M33.5 20.8334L32.0849 15.8657C32.0361 15.701 31.9358 15.5564 31.7986 15.453C31.6614 15.3497 31.4947 15.2932 31.3229 15.2917H16.6771C16.5053 15.2932 16.3386 15.3497 16.2014 15.453C16.0642 15.5564 15.9639 15.701 15.9151 15.8657L14.5 20.8334M33.5 20.8334H14.5M33.5 20.8334V22.4167C33.5 23.2566 33.1664 24.0621 32.5725 24.6559C31.9786 25.2498 31.1732 25.5834 30.3333 25.5834C29.4935 25.5834 28.688 25.2498 28.0942 24.6559C27.5003 24.0621 27.1667 23.2566 27.1667 22.4167M14.5 20.8334V22.4167C14.5 23.2566 14.8336 24.0621 15.4275 24.6559C16.0214 25.2498 16.8268 25.5834 17.6667 25.5834C18.5065 25.5834 19.312 25.2498 19.9058 24.6559C20.4997 24.0621 20.8333 23.2566 20.8333 22.4167M20.8333 20.8334V22.4167M20.8333 22.4167C20.8333 23.2566 21.167 24.0621 21.7608 24.6559C22.3547 25.2498 23.1601 25.5834 24 25.5834C24.8399 25.5834 25.6453 25.2498 26.2392 24.6559C26.833 24.0621 27.1667 23.2566 27.1667 22.4167M27.1667 20.8334V22.4167" stroke="white" stroke-linecap="round" stroke-linejoin="round"/>
<rect x="0.5" y="0.5" width="47" height="47" rx="23.5" stroke="white"/>
</svg>
