<svg width="48" height="48" viewBox="0 0 48 48" fill="none" xmlns="http://www.w3.org/2000/svg">
<path d="M20.508 23.892L20.8616 24.2456C21.0038 24.1033 21.047 23.8896 20.971 23.7033L20.508 23.892ZM20.04 21.48L20.54 21.4819V21.48H20.04ZM26.52 27.96V27.46L26.5181 27.46L26.52 27.96ZM24.108 27.492L24.2967 27.029C24.1104 26.953 23.8967 26.9962 23.7544 27.1384L24.108 27.492ZM22.92 28.68V29.18C23.0526 29.18 23.1798 29.1273 23.2736 29.0336L22.92 28.68ZM20.76 28.68V28.18C20.4839 28.18 20.26 28.4039 20.26 28.68H20.76ZM20.76 30.84V31.34C21.0361 31.34 21.26 31.1161 21.26 30.84H20.76ZM18.6 30.84V30.34C18.3239 30.34 18.1 30.5639 18.1 30.84H18.6ZM18.6 33V33.5C18.8761 33.5 19.1 33.2761 19.1 33H18.6ZM15 33H14.5C14.5 33.2761 14.7239 33.5 15 33.5V33ZM15 29.4L14.6464 29.0464C14.5527 29.1402 14.5 29.2674 14.5 29.4H15ZM20.971 23.7033C20.6836 22.9981 20.5371 22.2434 20.54 21.4819L19.54 21.4781C19.5366 22.3703 19.7082 23.2545 20.045 24.0807L20.971 23.7033ZM20.54 21.48C20.54 20.2973 20.8907 19.1411 21.5478 18.1577L20.7163 17.6021C19.9494 18.75 19.54 20.0995 19.54 21.48H20.54ZM21.5478 18.1577C22.2049 17.1743 23.1388 16.4078 24.2316 15.9552L23.8489 15.0313C22.5734 15.5596 21.4833 16.4543 20.7163 17.6021L21.5478 18.1577ZM24.2316 15.9552C25.3243 15.5026 26.5266 15.3842 27.6866 15.6149L27.8817 14.6341C26.5277 14.3648 25.1243 14.503 23.8489 15.0313L24.2316 15.9552ZM27.6866 15.6149C28.8466 15.8456 29.9122 16.4152 30.7485 17.2515L31.4556 16.5444C30.4794 15.5682 29.2357 14.9034 27.8817 14.6341L27.6866 15.6149ZM30.7485 17.2515C31.5848 18.0878 32.1544 19.1534 32.3851 20.3134L33.3659 20.1183C33.0966 18.7643 32.4318 17.5206 31.4556 16.5444L30.7485 17.2515ZM32.3851 20.3134C32.6158 21.4734 32.4974 22.6757 32.0448 23.7684L32.9687 24.1511C33.497 22.8757 33.6352 21.4723 33.3659 20.1183L32.3851 20.3134ZM32.0448 23.7684C31.5922 24.8611 30.8257 25.7951 29.8423 26.4522L30.3979 27.2837C31.5457 26.5167 32.4404 25.4266 32.9687 24.1511L32.0448 23.7684ZM29.8423 26.4522C28.8589 27.1093 27.7027 27.46 26.52 27.46V28.46C27.9005 28.46 29.25 28.0506 30.3979 27.2837L29.8423 26.4522ZM26.5181 27.46C25.7566 27.4629 25.0019 27.3164 24.2967 27.029L23.9193 27.955C24.7455 28.2918 25.6297 28.4633 26.5219 28.46L26.5181 27.46ZM23.7544 27.1384L22.5664 28.3264L23.2736 29.0336L24.4616 27.8456L23.7544 27.1384ZM22.92 28.18H20.76V29.18H22.92V28.18ZM20.26 28.68V30.84H21.26V28.68H20.26ZM20.76 30.34H18.6V31.34H20.76V30.34ZM18.1 30.84V33H19.1V30.84H18.1ZM18.6 32.5H15V33.5H18.6V32.5ZM15.5 33V29.4H14.5V33H15.5ZM15.3536 29.7536L20.8616 24.2456L20.1544 23.5384L14.6464 29.0464L15.3536 29.7536ZM28.5 20C28.5 20.2761 28.2761 20.5 28 20.5V21.5C28.8284 21.5 29.5 20.8284 29.5 20H28.5ZM28 20.5C27.7239 20.5 27.5 20.2761 27.5 20H26.5C26.5 20.8284 27.1716 21.5 28 21.5V20.5ZM27.5 20C27.5 19.7239 27.7239 19.5 28 19.5V18.5C27.1716 18.5 26.5 19.1716 26.5 20H27.5ZM28 19.5C28.2761 19.5 28.5 19.7239 28.5 20H29.5C29.5 19.1716 28.8284 18.5 28 18.5V19.5ZM15.2334 15.4435L32.6122 32.8223L33.3193 32.1152L15.9405 14.7364L15.2334 15.4435Z" fill="white"/>
<rect x="0.5" y="0.5" width="47" height="47" rx="23.5" stroke="white"/>
</svg>
