<svg width="48" height="48" viewBox="0 0 48 48" fill="none" xmlns="http://www.w3.org/2000/svg">
<path d="M20.7601 21.48V18.24C20.7601 17.3807 21.1014 16.5566 21.7091 15.949C22.3167 15.3414 23.1408 15 24.0001 15C24.8594 15 25.6835 15.3414 26.2911 15.949C26.8987 16.5566 27.2401 17.3807 27.2401 18.24V21.48M16.8001 21.48H31.2001C31.5977 21.48 31.9201 21.8024 31.9201 22.2V32.28C31.9201 32.6776 31.5977 33 31.2001 33H16.8001C16.4024 33 16.0801 32.6776 16.0801 32.28V22.2C16.0801 21.8024 16.4024 21.48 16.8001 21.48Z" stroke="white" stroke-linecap="round" stroke-linejoin="round"/>
<path d="M24 28.2573C24.6944 28.2573 25.2573 27.6944 25.2573 27C25.2573 26.3056 24.6944 25.7427 24 25.7427C23.3056 25.7427 22.7427 26.3056 22.7427 27C22.7427 27.6944 23.3056 28.2573 24 28.2573Z" fill="white"/>
<rect x="0.5" y="0.5" width="47" height="47" rx="23.5" stroke="white"/>
</svg>
