<svg width="48" height="48" viewBox="0 0 48 48" fill="none" xmlns="http://www.w3.org/2000/svg">
<path d="M14.75 23.6697H33.25M31.9286 28.9554V30.9376C31.9286 31.1128 31.859 31.2809 31.7351 31.4048C31.6111 31.5287 31.4431 31.5983 31.2679 31.5983H29.2857C29.1105 31.5983 28.9424 31.5287 28.8185 31.4048C28.6946 31.2809 28.625 31.1128 28.625 30.9376V28.9554M31.9286 28.9554H16.0714M31.9286 28.9554V23.6697L29.4757 19.3751C29.4185 19.2744 29.3356 19.1908 29.2355 19.1327C29.1353 19.0746 29.0216 19.0443 28.9058 19.0447H19.0942C18.9784 19.0443 18.8647 19.0746 18.7645 19.1327C18.6644 19.1908 18.5815 19.2744 18.5243 19.3751L16.0714 23.6697V28.9554M19.375 28.9554V30.9376C19.375 31.1128 19.3054 31.2809 19.1815 31.4048C19.0576 31.5287 18.8895 31.5983 18.7143 31.5983H16.7321C16.5569 31.5983 16.3889 31.5287 16.2649 31.4048C16.141 31.2809 16.0714 31.1128 16.0714 30.9376V28.9554M18.7143 26.3126H20.0357M27.9643 26.3126H29.2857M22.0179 16.4019H25.9821" stroke="white" stroke-linecap="round" stroke-linejoin="round"/>
<rect x="0.5" y="0.5" width="47" height="47" rx="23.5" stroke="white"/>
</svg>
