<svg width="48" height="48" viewBox="0 0 48 48" fill="none" xmlns="http://www.w3.org/2000/svg">
<path d="M29.3182 26.4545V32.1818M32.1818 29.3182H26.4545M22.3636 18.6818C22.3636 20.7152 20.7152 22.3636 18.6818 22.3636C16.6484 22.3636 15 20.7152 15 18.6818C15 16.6484 16.6484 15 18.6818 15C20.7152 15 22.3636 16.6484 22.3636 18.6818ZM33 18.6818C33 20.7152 31.3516 22.3636 29.3182 22.3636C27.2848 22.3636 25.6364 20.7152 25.6364 18.6818C25.6364 16.6484 27.2848 15 29.3182 15C31.3516 15 33 16.6484 33 18.6818ZM22.3636 29.3182C22.3636 31.3516 20.7152 33 18.6818 33C16.6484 33 15 31.3516 15 29.3182C15 27.2848 16.6484 25.6364 18.6818 25.6364C20.7152 25.6364 22.3636 27.2848 22.3636 29.3182Z" stroke="white" stroke-linecap="round" stroke-linejoin="round"/>
<rect x="0.5" y="0.5" width="47" height="47" rx="23.5" stroke="white"/>
</svg>
