<svg width="34" height="30" viewBox="0 0 34 30" fill="none" xmlns="http://www.w3.org/2000/svg">
<path d="M0.5 17.2417L16.7602 0.666656V16.0422C15.0059 16.2443 13.6436 17.7383 13.6436 19.5513C13.6436 21.3644 15.0059 22.8584 16.7602 23.0605V29.3333H12.6951V11.128L4.56504 19.3762V25.3934H10.3239V29.3333H0.5V17.2417Z" fill="#F4CF09"/>
<path d="M33.8333 17.2417L17.5732 0.666656V16.0422C19.3274 16.2443 20.6897 17.7383 20.6897 19.5513C20.6897 21.3644 19.3274 22.8584 17.5732 23.0605V29.3333H21.6382V11.128L29.7683 19.3762V25.3934H24.0095V29.3333H33.8333V17.2417Z" fill="white"/>
<ellipse cx="17.1666" cy="19.5514" rx="2.71003" ry="2.71722" fill="white"/>
<path d="M3.34554 4.47083H9.5786V6.78046L3.34554 13.0301V4.47083Z" fill="white"/>
</svg>
