<svg width="48" height="48" viewBox="0 0 48 48" fill="none" xmlns="http://www.w3.org/2000/svg">
<g clip-path="url(#clip0_221_776)">
<path d="M14.7144 19.7143V16.1429C14.7144 15.764 14.8649 15.4006 15.1328 15.1327C15.4007 14.8648 15.764 14.7143 16.1429 14.7143H19.7144M33.2858 19.7143V16.1429C33.2858 15.764 33.1353 15.4006 32.8674 15.1327C32.5995 14.8648 32.2361 14.7143 31.8572 14.7143H28.2858M14.7144 28.2857V31.8572C14.7144 32.236 14.8649 32.5994 15.1328 32.8673C15.4007 33.1352 15.764 33.2857 16.1429 33.2857H19.7144M33.2858 28.2857V31.8572C33.2858 32.236 33.1353 32.5994 32.8674 32.8673C32.5995 33.1352 32.2361 33.2857 31.8572 33.2857H28.2858" stroke="white" stroke-linecap="round" stroke-linejoin="round"/>
<path d="M18.6001 27.3417L19.9439 26.873C21.1312 26.4589 22.4405 26.5886 23.5235 27.2274C24.6237 27.8764 25.9564 27.9994 27.1568 27.5627L29.4001 26.7467M18.6001 24.1141L19.9439 23.6454C21.1312 23.2314 22.4405 23.361 23.5235 23.9999C24.6237 24.6489 25.9564 24.7719 27.1568 24.3352L29.4001 23.5191M18.6001 20.8866L19.9439 20.4179C21.1312 20.0038 22.4405 20.1335 23.5235 20.7723C24.6237 21.4213 25.9564 21.5443 27.1568 21.1077L29.4001 20.2916" stroke="white" stroke-linecap="round" stroke-linejoin="round"/>
</g>
<rect x="0.5" y="0.5" width="47" height="47" rx="23.5" stroke="white"/>
<defs>
<clipPath id="clip0_221_776">
<rect width="20" height="20" fill="white" transform="translate(14 14)"/>
</clipPath>
</defs>
</svg>
