<svg width="48" height="48" viewBox="0 0 48 48" fill="none" xmlns="http://www.w3.org/2000/svg">
<path d="M26.1428 21.1429C26.9318 21.1429 27.5714 20.5033 27.5714 19.7143C27.5714 18.9254 26.9318 18.2858 26.1428 18.2858C25.3538 18.2858 24.7142 18.9254 24.7142 19.7143C24.7142 20.5033 25.3538 21.1429 26.1428 21.1429Z" stroke="white" stroke-linecap="round" stroke-linejoin="round"/>
<path d="M20.4285 28.2857C20.823 28.2857 21.1428 27.966 21.1428 27.5715C21.1428 27.177 20.823 26.8572 20.4285 26.8572C20.034 26.8572 19.7142 27.177 19.7142 27.5715C19.7142 27.966 20.034 28.2857 20.4285 28.2857Z" stroke="white" stroke-linecap="round" stroke-linejoin="round"/>
<path d="M20.4286 23.2857C21.2175 23.2857 21.8571 22.6461 21.8571 21.8572C21.8571 21.0682 21.2175 20.4286 20.4286 20.4286C19.6396 20.4286 19 21.0682 19 21.8572C19 22.6461 19.6396 23.2857 20.4286 23.2857Z" stroke="white" stroke-linecap="round" stroke-linejoin="round"/>
<path d="M27.6 31.5429C27.5841 31.2658 27.4878 30.9994 27.3229 30.7761C27.158 30.5529 26.9316 30.3825 26.6714 30.2858C26.0253 30.0734 25.4761 29.6375 25.1226 29.0565C24.7691 28.4754 24.6345 27.7873 24.743 27.1159C24.8514 26.4444 25.1959 25.8337 25.7143 25.3935C26.2328 24.9533 26.8913 24.7125 27.5714 24.7144H30.2429C30.701 24.7156 31.1528 24.6067 31.5601 24.3967C31.9673 24.1868 32.3181 23.882 32.5828 23.508C32.8476 23.134 33.0185 22.7018 33.0811 22.248C33.1438 21.7941 33.0964 21.3318 32.9429 20.9001C32.3747 19.2957 31.3765 17.8784 30.0573 16.803C28.7382 15.7276 27.1488 15.0354 25.4629 14.802C23.777 14.5687 22.0594 14.8032 20.4977 15.48C18.9361 16.1567 17.5905 17.2496 16.6079 18.6393C15.6253 20.029 15.0436 21.6621 14.9263 23.36C14.8089 25.0579 15.1605 26.7554 15.9426 28.2671C16.7247 29.7787 17.9072 31.0463 19.361 31.9314C20.8147 32.8165 22.4837 33.285 24.1857 33.2858C25.0262 33.2881 25.8629 33.1727 26.6714 32.9429C26.9684 32.8597 27.2255 32.6726 27.396 32.4156C27.5664 32.1586 27.6389 31.8489 27.6 31.5429V31.5429Z" stroke="white" stroke-linecap="round" stroke-linejoin="round"/>
<rect x="0.5" y="0.5" width="47" height="47" rx="23.5" stroke="white"/>
</svg>
