<svg width="48" height="48" viewBox="0 0 48 48" fill="none" xmlns="http://www.w3.org/2000/svg">
<path d="M29.6136 14.5H32.6364C32.8654 14.5 33.0851 14.591 33.247 14.753C33.409 14.9149 33.5 15.1346 33.5 15.3636V18.3864M29.6136 33.5H32.6364C32.8654 33.5 33.0851 33.409 33.247 33.247C33.409 33.0851 33.5 32.8654 33.5 32.6364V29.6136M18.3864 33.5H15.3636C15.1346 33.5 14.9149 33.409 14.753 33.247C14.591 33.0851 14.5 32.8654 14.5 32.6364V29.6136M18.3864 14.5H15.3636C15.1346 14.5 14.9149 14.591 14.753 14.753C14.591 14.9149 14.5 15.1346 14.5 15.3636V18.3864M18.2676 29.1818C18.8197 28.1404 19.645 27.2691 20.655 26.6614C21.6649 26.0537 22.8213 25.7326 24 25.7326C25.1787 25.7326 26.3351 26.0537 27.345 26.6614C28.355 27.2691 29.1803 28.1404 29.7324 29.1818M27.4545 22.2727C27.4545 24.1806 25.9079 25.7273 24 25.7273C22.0921 25.7273 20.5455 24.1806 20.5455 22.2727C20.5455 20.3648 22.0921 18.8182 24 18.8182C25.9079 18.8182 27.4545 20.3648 27.4545 22.2727Z" stroke="white" stroke-linecap="round" stroke-linejoin="round"/>
<rect x="0.5" y="0.5" width="47" height="47" rx="23.5" stroke="white"/>
</svg>
