<svg width="48" height="48" viewBox="0 0 48 48" fill="none" xmlns="http://www.w3.org/2000/svg">
<path d="M19.6826 28.3174C19.1254 27.7608 18.6817 27.1011 18.3764 26.375C18.0572 25.6239 17.8927 24.8162 17.8927 24C17.8927 23.1839 18.0572 22.3762 18.3764 21.6251C18.6817 20.899 19.1254 20.2393 19.6826 19.6827M28.3174 19.6827C28.8746 20.2393 29.3183 20.899 29.6236 21.6251C29.9428 22.3762 30.1073 23.1839 30.1073 24C30.1073 24.8162 29.9428 25.6239 29.6236 26.375C29.3183 27.1011 28.8746 27.7608 28.3174 28.3174M17.2822 30.7178C16.4167 29.8508 15.7257 28.8257 15.2465 27.6982C14.7538 26.5275 14.5 25.2702 14.5 24C14.5 22.7299 14.7538 21.4725 15.2465 20.3018C15.7257 19.1744 16.4167 18.1493 17.2822 17.2822M30.7178 17.2822C31.5833 18.1493 32.2743 19.1744 32.7535 20.3018C33.2462 21.4725 33.5 22.7299 33.5 24C33.5 25.2702 33.2462 26.5275 32.7535 27.6982C32.2743 28.8257 31.5833 29.8508 30.7178 30.7178M26.7143 24C26.7143 25.4991 25.499 26.7143 24 26.7143C22.501 26.7143 21.2857 25.4991 21.2857 24C21.2857 22.501 22.501 21.2858 24 21.2858C25.499 21.2858 26.7143 22.501 26.7143 24Z" stroke="white" stroke-linecap="round" stroke-linejoin="round"/>
<rect x="0.5" y="0.5" width="47" height="47" rx="23.5" stroke="white"/>
</svg>
