<svg width="48" height="48" viewBox="0 0 48 48" fill="none" xmlns="http://www.w3.org/2000/svg">
<g clip-path="url(#clip0_221_1025)">
<path d="M14.8353 29.0976C14.5746 29.1885 14.437 29.4736 14.5279 29.7344C14.6188 29.9951 14.9039 30.1327 15.1647 30.0418L14.8353 29.0976ZM17.2397 28.7886L17.4044 29.2607H17.4044L17.2397 28.7886ZM29.2612 29.9382L29.0903 29.4683L29.2612 29.9382ZM33.1709 29.0479C33.4304 28.9535 33.5643 28.6666 33.4699 28.4071C33.3755 28.1476 33.0886 28.0138 32.8291 28.1082L33.1709 29.0479ZM23.2057 29.3793L22.9517 29.81H22.9517L23.2057 29.3793ZM14.8353 23.7183C14.5746 23.8093 14.437 24.0944 14.5279 24.3551C14.6188 24.6159 14.9039 24.7535 15.1647 24.6626L14.8353 23.7183ZM17.2397 23.4093L17.0751 22.9372L17.2397 23.4093ZM29.2612 24.559L29.0903 24.0891L29.2612 24.559ZM33.1709 23.6687C33.4304 23.5743 33.5643 23.2874 33.4699 23.0279C33.3755 22.7684 33.0886 22.6345 32.8291 22.729L33.1709 23.6687ZM23.2057 24.0001L23.4598 23.5694L23.2057 24.0001ZM14.8353 18.3391C14.5746 18.43 14.437 18.7151 14.5279 18.9759C14.6188 19.2366 14.9039 19.3743 15.1647 19.2833L14.8353 18.3391ZM17.2397 18.0301L17.0751 17.558L17.2397 18.0301ZM29.2612 19.1797L29.0903 18.7098L29.2612 19.1797ZM33.1709 18.2895C33.4304 18.1951 33.5643 17.9082 33.4699 17.6486C33.3755 17.3891 33.0886 17.2553 32.8291 17.3497L33.1709 18.2895ZM23.2057 18.6208L23.4598 18.1902L23.2057 18.6208ZM15.1647 30.0418L17.4044 29.2607L17.0751 28.3165L14.8353 29.0976L15.1647 30.0418ZM29.4321 30.4081L33.1709 29.0479L32.8291 28.1082L29.0903 29.4683L29.4321 30.4081ZM22.9517 29.81C24.914 30.9676 27.2911 31.1869 29.4321 30.4081L29.0903 29.4683C27.23 30.145 25.1647 29.9544 23.4598 28.9487L22.9517 29.81ZM17.4044 29.2607C19.2443 28.619 21.2733 28.8199 22.9517 29.81L23.4598 28.9487C21.5281 27.8092 19.1927 27.5779 17.0751 28.3165L17.4044 29.2607ZM15.1647 24.6626L17.4044 23.8814L17.0751 22.9372L14.8353 23.7183L15.1647 24.6626ZM29.4321 25.0288L33.1709 23.6687L32.8291 22.729L29.0903 24.0891L29.4321 25.0288ZM22.9517 24.4307C24.914 25.5883 27.2911 25.8077 29.4321 25.0288L29.0903 24.0891C27.23 24.7658 25.1647 24.5752 23.4598 23.5694L22.9517 24.4307ZM17.4044 23.8814C19.2443 23.2398 21.2733 23.4407 22.9517 24.4307L23.4598 23.5694C21.5281 22.4299 19.1927 22.1987 17.0751 22.9372L17.4044 23.8814ZM15.1647 19.2833L17.4044 18.5022L17.0751 17.558L14.8353 18.3391L15.1647 19.2833ZM29.4321 19.6496L33.1709 18.2895L32.8291 17.3497L29.0903 18.7098L29.4321 19.6496ZM22.9517 19.0515C24.914 20.2091 27.2911 20.4285 29.4321 19.6496L29.0903 18.7098C27.23 19.3866 25.1647 19.1959 23.4598 18.1902L22.9517 19.0515ZM17.4044 18.5022C19.2443 17.8605 21.2733 18.0614 22.9517 19.0515L23.4598 18.1902C21.5281 17.0507 19.1927 16.8194 17.0751 17.558L17.4044 18.5022ZM15 15.3787L32.8827 33.2614L33.5898 32.5543L15.7071 14.6716L15 15.3787Z" fill="white"/>
</g>
<rect x="0.5" y="0.5" width="47" height="47" rx="23.5" stroke="white"/>
<defs>
<clipPath id="clip0_221_1025">
<rect width="20" height="20" fill="white" transform="translate(14 14)"/>
</clipPath>
</defs>
</svg>
